<?xml version="1.0" encoding="utf-8"?>
<!-- Generator: Adobe Illustrator 19.2.1, SVG Export Plug-In . SVG Version: 6.00 Build 0)  -->
<svg version="1.1" id="Слой_1" xmlns="http://www.w3.org/2000/svg" xmlns:xlink="http://www.w3.org/1999/xlink" x="0px" y="0px"
	 viewBox="0 0 2726.8 1545.5" style="enable-background:new 0 0 2726.8 1545.5;" xml:space="preserve">
<style type="text/css">
	.st0{filter:url(#Adobe_OpacityMaskFilter);}
	.st1{filter:url(#Adobe_OpacityMaskFilter_1_);}
	.st2{mask:url(#SVGID_1_);fill:url(#SVGID_2_);}
	.st3{fill:url(#SVGID_3_);}
	.st4{filter:url(#Adobe_OpacityMaskFilter_2_);}
	.st5{filter:url(#Adobe_OpacityMaskFilter_3_);}
	.st6{mask:url(#SVGID_4_);fill:url(#SVGID_5_);}
	.st7{fill:url(#SVGID_6_);}
	.st8{fill:url(#SVGID_7_);}
	.st9{fill:#E55353;}
	.st10{fill:#3B3B40;}
	.st11{fill:#EEA886;}
	.st12{fill:#3C4145;}
	.st13{fill:#F54242;}
	.st14{fill:#A77860;}
	.st15{fill:#2F4563;}
	.st16{fill:#525252;}
	.st17{fill:#0E1E2B;}
	.st18{fill:#5B94E2;}
	.st19{fill:#665955;}
	.st20{fill:#877671;}
	.st21{fill:#34395C;}
	.st22{fill:#3C4169;}
	.st23{fill:#393D63;}
	.st24{fill:#3E6499;}
	.st25{fill:#2B2D4A;}
	.st26{fill:#363A5E;}
	.st27{fill:#3F446E;}
	.st28{fill:#EDDAD3;}
	.st29{fill:#E8734D;}
	.st30{fill:#CFBEB8;}
	.st31{fill:#D6C5BE;}
	.st32{fill:#494F80;}
	.st33{fill:#6A77BF;}
	.st34{fill:#323657;}
	.st35{fill:#FAE6DE;}
	.st36{fill:#252740;}
	.st37{fill:#3D426B;}
	.st38{fill:#353A3D;}
	.st39{fill:#81807E;}
	.st40{fill:#292C47;}
	.st41{fill:#223247;}
	.st42{fill:#616161;}
	.st43{fill:#E0CEC7;}
	.st44{fill:#C98462;}
	.st45{fill:#FFFFFF;}
	.st46{fill:#162D40;}
	.st47{fill:#1D3B54;}
	.st48{fill:#285173;}
	.st49{fill:#252E3B;}
	.st50{fill:#54281A;}
	.st51{fill:#873F2B;}
	.st52{fill:#587AA3;}
	.st53{fill:url(#SVGID_8_);}
	.st54{fill:#FFCA55;}
	.st55{opacity:0.73;fill:#6BB0FF;}
	.st56{fill:#434343;}
	.st57{fill:#545554;}
	.st58{fill:#DECBC4;}
	.st59{fill:#495055;}
	.st60{fill:#5D676C;}
	.st61{fill:#E2D2CA;}
	.st62{fill:#51565C;}
	.st63{fill:#F5E2D9;}
	.st64{fill:#464157;}
	.st65{fill:#AD9F99;}
	.st66{fill:#69737A;}
	.st67{opacity:0.98;fill:#A3CDFF;}
	.st68{fill:#DB9C7C;}
	.st69{fill:#1E4280;}
	.st70{clip-path:url(#SVGID_10_);}
	.st71{clip-path:url(#SVGID_14_);}
	.st72{clip-path:url(#SVGID_16_);}
	.st73{fill-rule:evenodd;clip-rule:evenodd;fill:#1E4280;}
	.st74{fill-rule:evenodd;clip-rule:evenodd;fill:#E14025;}
</style>
<defs>
	<filter id="Adobe_OpacityMaskFilter" filterUnits="userSpaceOnUse" x="0" y="75.8" width="2726.8" height="1264.9">
		<feFlood  style="flood-color:white;flood-opacity:1" result="back"/>
		<feBlend  in="SourceGraphic" in2="back" mode="normal"/>
	</filter>
</defs>
<mask maskUnits="userSpaceOnUse" x="0" y="75.8" width="2726.8" height="1264.9" id="SVGID_1_">
	<g class="st0">
		<defs>
			<filter id="Adobe_OpacityMaskFilter_1_" filterUnits="userSpaceOnUse" x="0" y="75.8" width="2726.8" height="1264.9">
				<feFlood  style="flood-color:white;flood-opacity:1" result="back"/>
				<feBlend  in="SourceGraphic" in2="back" mode="normal"/>
			</filter>
		</defs>
		<mask maskUnits="userSpaceOnUse" x="0" y="75.8" width="2726.8" height="1264.9" id="SVGID_1_">
			<g class="st1">
			</g>
		</mask>
		<linearGradient id="SVGID_2_" gradientUnits="userSpaceOnUse" x1="1363.3931" y1="180.215" x2="1363.3931" y2="559.6422">
			<stop  offset="0" style="stop-color:#FFFFFF"/>
			<stop  offset="1" style="stop-color:#000000"/>
		</linearGradient>
		<polygon class="st2" points="2726.8,250.5 2726.8,1340.7 0,1340.7 0,504.4 0,504.4 0,286.9 88.2,286.9 88.2,397.7 200.5,397.7 
			245,449.4 290.1,449.4 290.1,181.4 393.8,181.4 393.8,250.5 481.9,250.5 481.9,383.8 600.2,383.8 600.2,216.5 693.5,216.5 
			693.5,286.9 742.1,286.9 784.1,238 831.9,238 831.9,75.8 965.5,75.8 965.5,316.5 1102.2,316.5 1102.2,374.5 1155.1,374.5 
			1155.1,286.9 1357,286.9 1357,383.8 1434.2,383.8 1434.2,250.5 1552,250.5 1552,449.4 1558.9,449.4 1558.9,181.4 1662.7,181.4 
			1662.7,250.5 1750.7,250.5 1750.7,383.8 1869,383.8 1869,216.5 1962.3,216.5 1962.3,286.9 2010.9,286.9 2052.9,238 2100.7,238 
			2100.7,75.8 2234.3,75.8 2234.3,316.5 2371,316.5 2371,374.5 2424,374.5 2424,286.9 2530.3,286.9 2530.3,383.8 2703,383.8 
			2703,250.5 		"/>
	</g>
</mask>
<linearGradient id="SVGID_3_" gradientUnits="userSpaceOnUse" x1="1363.3931" y1="180.215" x2="1363.3931" y2="559.6422">
	<stop  offset="0" style="stop-color:#FADDD7"/>
	<stop  offset="1" style="stop-color:#FFFFFF"/>
</linearGradient>
<polyline class="st3" points="2726.8,383.8 2726.8,1340.7 0,1340.7 0,504.4 0,504.4 0,286.9 88.2,286.9 88.2,397.7 200.5,397.7 
	245,449.4 290.1,449.4 290.1,181.4 393.8,181.4 393.8,250.5 481.9,250.5 481.9,383.8 600.2,383.8 600.2,216.5 693.5,216.5 
	693.5,286.9 742.1,286.9 784.1,238 831.9,238 831.9,75.8 965.5,75.8 965.5,316.5 1102.2,316.5 1102.2,374.5 1155.1,374.5 
	1155.1,286.9 1357,286.9 1357,383.8 1434.2,383.8 1434.2,250.5 1552,250.5 1552,449.4 1558.9,449.4 1558.9,181.4 1662.7,181.4 
	1662.7,250.5 1750.7,250.5 1750.7,383.8 1869,383.8 1869,216.5 1962.3,216.5 1962.3,286.9 2010.9,286.9 2052.9,238 2100.7,238 
	2100.7,75.8 2234.3,75.8 2234.3,316.5 2371,316.5 2371,374.5 2424,374.5 2424,286.9 2530.3,286.9 2530.3,383.8 2726.8,383.8 "/>
<defs>
	<filter id="Adobe_OpacityMaskFilter_2_" filterUnits="userSpaceOnUse" x="0" y="363" width="2726.8" height="592.9">
		<feFlood  style="flood-color:white;flood-opacity:1" result="back"/>
		<feBlend  in="SourceGraphic" in2="back" mode="normal"/>
	</filter>
</defs>
<mask maskUnits="userSpaceOnUse" x="0" y="363" width="2726.8" height="592.9" id="SVGID_4_">
	<g class="st4">
		<defs>
			<filter id="Adobe_OpacityMaskFilter_3_" filterUnits="userSpaceOnUse" x="0" y="363" width="2726.8" height="592.9">
				<feFlood  style="flood-color:white;flood-opacity:1" result="back"/>
				<feBlend  in="SourceGraphic" in2="back" mode="normal"/>
			</filter>
		</defs>
		<mask maskUnits="userSpaceOnUse" x="0" y="363" width="2726.8" height="592.9" id="SVGID_4_">
			<g class="st5">
			</g>
		</mask>
		<linearGradient id="SVGID_5_" gradientUnits="userSpaceOnUse" x1="1363.3931" y1="342.8809" x2="1363.3931" y2="660.2141">
			<stop  offset="0" style="stop-color:#FFFFFF"/>
			<stop  offset="1" style="stop-color:#000000"/>
		</linearGradient>
		<polygon class="st6" points="0,955.9 0,410.7 102.7,410.7 102.7,510.3 220.7,510.3 256.7,546.3 648.3,546.3 709.2,485.4 
			832.2,485.4 832.2,383.1 939.7,383.1 939.7,521 1137.8,521 1214.1,444.7 1459,444.7 1459,573.3 1567.8,573.3 1620.7,520.3 
			1754.7,520.3 1792.7,558.3 1958.6,558.3 1958.6,415.7 2076.6,415.7 2076.6,462.8 2170.1,462.8 2170.1,363 2255.9,363 
			2255.9,513.8 2496.5,513.8 2519,536.3 2726.8,536.3 2726.8,955.9 		"/>
	</g>
</mask>
<linearGradient id="SVGID_6_" gradientUnits="userSpaceOnUse" x1="1363.3931" y1="342.8809" x2="1363.3931" y2="660.2141">
	<stop  offset="0" style="stop-color:#FADDD7"/>
	<stop  offset="1" style="stop-color:#FFFFFF"/>
</linearGradient>
<polygon class="st7" points="0,955.9 0,410.7 102.7,410.7 102.7,510.3 220.7,510.3 256.7,546.3 648.3,546.3 709.2,485.4 
	832.2,485.4 832.2,383.1 939.7,383.1 939.7,521 1137.8,521 1214.1,444.7 1459,444.7 1459,573.3 1567.8,573.3 1620.7,520.3 
	1754.7,520.3 1792.7,558.3 1958.6,558.3 1958.6,415.7 2076.6,415.7 2076.6,462.8 2170.1,462.8 2170.1,363 2255.9,363 2255.9,513.8 
	2496.5,513.8 2519,536.3 2726.8,536.3 2726.8,955.9 "/>
<linearGradient id="SVGID_7_" gradientUnits="userSpaceOnUse" x1="150.3388" y1="1478.0111" x2="2576.4336" y2="1478.0111">
	<stop  offset="0" style="stop-color:#CFD3DE"/>
	<stop  offset="1" style="stop-color:#CFD3DE;stop-opacity:0.5"/>
</linearGradient>
<ellipse class="st8" cx="1363.4" cy="1478" rx="1213" ry="67.5"/>
<g>
	<g>
		<path class="st9" d="M946.8,1432.2c0,0,16.7,28.3,23.8,32.9c9.6,6.3,3.6,12.6-1,12.6s-27.8,1.7-32.9-4.1
			c-5.1-5.8-7.7-23.2-12.4-27.8c-4.8-4.6-9.1-21.3,2.3-27C939.1,1412.6,946.8,1432.2,946.8,1432.2z"/>
	</g>
	<g>
		<path class="st10" d="M940.5,1417.4c0,0,18.2,35.6,21.5,40.5c3.3,4.9-6.2,4.9-12.1,2.6c-5.9-2.3-21.2-25.9-22.8-30.5
			c-1.7-4.5-0.5-11.1-0.5-11.1L940.5,1417.4z"/>
	</g>
	<g>
		<polygon class="st9" points="920.2,1437.6 924.6,1471.6 926.9,1471.7 926.2,1447.2 		"/>
	</g>
	<g>
		<path class="st9" d="M803.6,1404.6c0,0,4,32.6,8.6,39.7c6.3,9.6-1.8,13-5.9,11.2c-4.2-1.8-26.1-9.6-28.5-16.9
			c-2.4-7.4,2.3-24.3-0.3-30.4c-2.5-6.1,0.2-23.2,12.9-23.9C804.4,1383.6,803.6,1404.6,803.6,1404.6z"/>
	</g>
	<g>
		<path class="st10" d="M803.7,1388.5c0,0,2.5,39.9,3.5,45.7c1.1,5.8-7.6,2-12.1-2.5c-4.5-4.5-9.1-32.2-8.8-37
			c0.3-4.8,4-10.4,4-10.4L803.7,1388.5z"/>
	</g>
	<g>
		<polygon class="st9" points="777,1398.9 767.5,1431.8 769.6,1432.9 778.7,1410.1 		"/>
	</g>
	<g>
		<path class="st11" d="M944.1,1114.5c-0.5-2.6-20.7-41.7-24.4-53.5c-3.6-11.8-6.8-22.6-8.6-27.2c-0.1-0.3-0.3-0.8-0.6-1.6
			c-1.2-3.5-3.9-11.2-6.7-18.4c-0.2-0.5-0.4-1-0.6-1.5l-0.3-2.8c-2-5,0-7.9,0-11.9c0-1.2-0.1-2.5-0.6-4c0-0.1,0-0.1-0.1-0.2
			c-2.3-6.7-4-12.6-4.4-15.9c-1.1-10.9-7-59.6-7-59.6s19.1,9.9,21.3,17.5c3.2,11.6,6.5,28.9,7.3,34.2c0.8,5.3,9.1,49.5,10.9,58.5
			c1.7,9,3.7,16.6,6.2,22.5c2.5,5.9,19.1,58.9,20.1,63.7C957.8,1119.2,944.7,1117.2,944.1,1114.5z"/>
		<path class="st11" d="M943.9,1109c0,0-0.3,6.2-1.7,12.7c-0.6,3.2,2,22.7,2.5,25.2c0.4,2.1,1.6,0.6,2.1-0.9
			c0.3-0.9,0.5-7.8,1.1-11.6c0.6-3.2,1.3-4.5,2-3.6c0.7,0.9,3.7,13.2,3.4,18.8c-0.3,5.5,2.9,17.7,5.5,15.4
			c2.5-2.2,5.5-25.6,3.5-33.9c-1.9-8.3-6.7-18.3-6.7-18.3L943.9,1109z"/>
	</g>
	<g>
		<path class="st10" d="M873.3,1156.8c0.8,4,6.2,20.8,12.1,39.5v0c5.4,17,11.4,35.6,15,47.5c1.3,4.4,2.3,7.9,2.9,10
			c3.4,14-0.4,36.1-1.7,54.5c-1.2,18.4,25.5,121.6,25.5,121.6c4.7,2.2,13.5-12.6,13.5-12.6c-3.4-6.6-3-122.9-1.1-130.1
			c1.9-7.2,3.1-27.2,1.2-35c-0.4-1.6-0.6-3.7-0.6-6.3c-0.2-9.8,1.9-26.1,3.1-44c1.6-22.5-7.2-78.3-8.4-83.3
			c-0.1-0.5-0.3-1.1-0.5-1.9c-2.3-7.8-9.7-30.1-9.7-30.1c-15-4.5-26.3-5.3-34.8-3.6c-11.2,2.3-17.3,9-20.4,17.5
			C862.1,1121,872.2,1151.6,873.3,1156.8z"/>
	</g>
	<g>
		<path class="st10" d="M788.8,1387l15.2,5.3c2.6-12.5,64.3-99.8,68.1-109.5c3.8-9.7,7.8-28.4,7.8-35.3c0-1.2,0.1-3.3,0.3-6
			c0.7-10.4,2.6-30,5.3-45.3c0.5-2.8,1-5.5,1.6-8c3-13.2,3.5-58.2,3.6-84.7c0-11.8-0.1-19.9-0.1-19.9s-0.3-0.2-0.8-0.6
			c-5.7-4.3-42.2-30.6-54.9-6c-3.4,6.5-5.6,13.4-6.9,20.7c-4.1,22.2-0.1,47.3,3.2,70.1c2.8,19.5,8.2,47.1,9.8,67.6
			c0.9,11.3,0.5,20.4-2,24.8c-7.2,12.5-14.2,23.1-28.7,67.1C805.5,1341.8,788.8,1387,788.8,1387z"/>
	</g>
	<g>
		<path class="st12" d="M899.5,856.5c0,0,7.9-51.4-34.6-50.4c-42.5,0.9-42,26.3-41.2,51.6c0.8,25.2,17.1,23.3-1.3,58.4
			c-18.4,35.1,15.9,35.1,15.9,35.1l26.6-36.6L899.5,856.5z"/>
	</g>
	<g>
		<path class="st11" d="M869.6,811c0,0,28.8,4.5,29.9,45.5c1.1,40.9-7.8,49.7-33,41.1c-25.2-8.5-33.2-51.4-33.7-58
			C832.2,833,830.7,806.1,869.6,811z"/>
	</g>
	<g>
		<path class="st13" d="M819,953.4c-0.1,14.1,16.1,47.8,18.6,58.2c2.5,10.4,6.5,13.7,3.1,27.1c-3.3,13.3-13.7,58.4-13.2,62.3
			c0.4,4,92.9,18.5,106.8,15.8c0,0-17-63.6-18.3-70.9c-1.2-7.3,1.5-34.6,2.1-42.3c0.6-7.7,8.4-24.3,8.2-32c-0.3-7.9-4.1-14.7-9.5-23
			c-1.7-2.6-3.4-5.3-5.2-7.8c-5.7-8.4-11.4-16-14.2-18.6c-2.1-2-4-3.4-5.7-4.6c0,0,0,0,0,0c-3.5-2.4-5.9-3.1-5.9-3.1l-24.8-4
			c0,0-15.4,5.6-24.3,7.7C836.6,918.1,819.2,920.7,819,953.4z"/>
	</g>
	<g>
		<path class="st13" d="M891.5,917.5l14.4,22.6l13.2,20.9c0-0.1-0.9-3.3-2.4-12.4c-0.3-1.7-0.6-3.7-0.9-5.9
			c-0.1-0.6-0.2-1.3-0.4-1.9c0,0,0,0,0,0C909.7,927.7,892.2,917.9,891.5,917.5C891.5,917.5,891.5,917.5,891.5,917.5z"/>
	</g>
	<g>
		<path class="st11" d="M819.8,941.5c0,0,4-26.8,23.6-22.4c18.9,4.2,1.2,39.4-0.2,43.6c-1.4,4.2-15.4,38.2-16.6,42.6
			c-3.8,14.1-0.2,14.4,5.5,17.8c17,9.8,52.1,9.2,56.1,11.9c4,2.7,3.8,11.1-3,11.4c-8.8,0.4-59.3-4.4-66.3-5.1
			c-6.8-0.7-20.4-1.2-16.9-25.5C804.5,999.4,819.8,941.5,819.8,941.5z"/>
	</g>
	<g>
		<path class="st11" d="M850.3,879.2c2.5,4.7,5.1,34,5.1,34s35.2,13.3,31.6,5.8c-1.6-3.4-2.1-7.9-2.1-11.7c0-3,0.2-5.6,0.4-7.1
			c0.1-0.8,0.2-1.2,0.2-1.2S847.8,874.5,850.3,879.2z"/>
	</g>
	<g>
		<path class="st12" d="M881.3,840.4c0,0-14.8,24.1-28.2,33.5c-13.5,9.5-6.6,17.1-6.6,17.1s-35.1-73.9-1.7-79
			c33.4-5.1,53.9-5.5,54.8,44.5C899.5,856.5,884.4,840,881.3,840.4z"/>
	</g>
	<g>
		<path class="st14" d="M865.2,897.1c5.4,8,19.7,10.1,19.7,10.1s0,0,0,0c0-3,0.2-5.6,0.4-7.1C876.2,901.9,865.2,897.1,865.2,897.1z"
			/>
	</g>
	<path class="st13" d="M915.3,940.6L915.3,940.6c0,0,0.8,1.6,1.4,8l-5.2-7.8c0,0-9.3-13.3-12.4-16.7c-3.2-3.5-7.5-6.5-7.5-6.5
		S909.8,926.3,915.3,940.6z"/>
	<path class="st15" d="M909.7,969.3l-55.5-4.6c-2.4-0.2-4.4,1.6-4.6,3.9l-6.9,92c-0.2,2.3,1.5,4.3,3.8,4.6l53.3,5.5
		c2.4,0.2,4.5-1.5,4.7-3.8l9.1-92.9C913.9,971.6,912.1,969.5,909.7,969.3z"/>
	<path class="st11" d="M857.3,1031.2c0,0,10.5,1.8,11.5,1.6c1-0.2,5.1-7,10-8.2c4.8-1.2,10.8-2.2,12.3-3.1c1.5-0.9,1.9,3.8-2.7,5.7
		c-4.6,1.9-5.8,4.5,2.9,6.3c4.8,1,22.7-1,21.2,2c-0.9,1.8-18.1,3-18.1,3s18.6-0.1,19.3,1c1.2,2.2-17.4,3-18.2,2.9
		c0,0,16,0.9,16.2,2.4c0.2,1.8-16,1-15.9,1.3c0,0,12.7,0.9,12.6,2c-0.2,1.4-11.4,1.6-13.5,1.3c-2.2-0.3-24.1-2.8-27.8-3.5
		c-3.7-0.7-9.9-1.2-9.9-1.2L857.3,1031.2z"/>
	<path class="st11" d="M837.2,1025.5c0,0,10.4,3.7,20.1,5.7c9.7,2-0.3,13.6-0.3,13.6s-16.8-1.5-24.8-2.3
		C828.3,1042.1,837.2,1025.5,837.2,1025.5z"/>
	<path class="st13" d="M845.2,960.5c0,0-22.6-8.9-29.3-9.4c0,0,4.5-36.3,26.8-32.5C864.9,922.5,845.2,960.5,845.2,960.5z"/>
	<path class="st13" d="M831.2,1168c2.8,19.5,8.2,47.1,9.8,67.6c0,0,15.9,3.2,39.1,6c6.3,0.8,13.1,1.5,20.3,2.2
		c12.4,1.1,26,2,39.7,2.2c-0.2-9.8,1.9-26.1,3.1-44c1.6-22.5-7.2-78.3-8.4-83.3c-0.1-0.5-0.3-1.1-0.5-1.9
		c-11.2-6.2-27.3-10.4-43.6-13.2c-7.2-1.2-14.4-2.2-21.2-3c-21.4-2.4-39.2-2.8-41.4-2.8C823.9,1120.1,827.9,1145.2,831.2,1168z"/>
	<path class="st11" d="M885.6,914.4c0,0,16.6,25.5,11,27.8c-5.6,2.2-36-3-49-27.2C847.6,915,867,905,885.6,914.4z"/>
</g>
<g>
	<path class="st16" d="M575,1143.2l-6.2-10.7c-1.8-3.1-0.7-7.1,2.4-8.9l35.1-20.2c3.1-1.8,7.1-0.7,8.9,2.4l6.2,10.7
		c1.8,3.1,0.7,7.1-2.4,8.9l-35.1,20.2C580.8,1147.4,576.8,1146.4,575,1143.2z"/>
	<g>
		<g>
			<g>
				<g>
					<g>
						<path class="st11" d="M580.7,1138.4c0,0-2.5-1.4-3.2-2.5c0,0-1.3-2.2-2.2-3.6c-0.3-0.5-0.6-0.9-0.8-1.1c-0.9-1-3.1-2.9-4.6-6
							c-1.4-3-4.3-17.6-4.3-17.6l7.4-3.8l6.4-4.5c0,0,17,11.2,18.7,13.9c0.2,0.3,0.3,0.5,0.4,0.8c1.2,2.4,1.1,4.6,1.6,6
							c0.2,0.5,1.6,5.4,0.7,6.7c-1.2,1.8-2.7,2.5-4.2,2.5c0,0-2.5,3.3-5.2,4c0,0-2.2,3.2-5.8,3
							C585.5,1136.1,582.9,1139,580.7,1138.4z"/>
					</g>
				</g>
			</g>
		</g>
	</g>
	<g>
		<path class="st17" d="M441.6,1174.1l-33.7-7.5c-3.4-0.8-5.6-4.2-4.8-7.6l4.7-21.2c0.8-3.4,4.2-5.6,7.6-4.8l33.7,7.5
			c3.4,0.8,5.6,4.2,4.8,7.6l-4.7,21.2C448.4,1172.7,445,1174.9,441.6,1174.1z M414.5,1137.1c-1.1-0.2-2.2,0.5-2.5,1.6l-4.7,21.2
			c-0.3,1.1,0.5,2.2,1.6,2.5l33.6,7.5c1.1,0.3,2.2-0.5,2.5-1.6l4.7-21.2c0.3-1.1-0.5-2.2-1.6-2.5L414.5,1137.1z"/>
	</g>
	<g>
		<g>
			<g>
				<g>
					<g>
						<path class="st11" d="M417.8,1145.3c0,0-0.9-2.6-0.7-3.9c0,0,0.5-2.4,0.7-4.1c0.1-0.5,0.1-1,0.1-1.3c0-1.3-0.4-4.1,0.5-7.2
							c0.9-3.1,8.1-15.4,8.1-15.4l7.8,2l7.6,0.9c0,0,5.1,19,4.6,22c0,0.3-0.1,0.6-0.2,0.8c-0.7,2.5-2.2,4-2.7,5.3
							c-0.2,0.5-2.3,4.9-3.8,5.3c-2,0.5-3.6,0-4.6-0.9c0,0-4,0.8-6.4-0.5c0,0-3.6,0.9-6.2-1.6C422.8,1146.7,419,1147.2,417.8,1145.3
							z"/>
					</g>
				</g>
			</g>
		</g>
	</g>
	<g>
		<path class="st18" d="M498.6,971c-1.5,1.9-7.4,13-13.7,24.8c0,0,0,0,0,0c-1,1.9-2.1,3.9-3.1,5.9c-0.8,1.6-1.7,3.1-2.5,4.7
			c-0.9,1.7-1.8,3.3-2.6,4.9c-3.5,6.6-6.5,12-8,14.5c-4.2,7.1-11.1,32.7-12.8,37.8c-1.7,5.1-10,55.4-10,55.4s-26.5,0.1-25.7-1.9
			c0.8-2,10.9-56.3,12.9-64.4c2.7-10.7,12.9-39.6,13.9-41.7c1-2.1,22.6-47.1,25.5-54.9c3.1-8.2,4.7-15.6,17.6-30.9
			c12.9-15.3,27.6-7.3,27.6-7.3C529.8,926.3,501.7,967.1,498.6,971z"/>
	</g>
	<g>
		
			<rect x="352" y="1160.1" transform="matrix(0.976 0.2178 -0.2178 0.976 272.7761 -61.7935)" class="st19" width="129.4" height="92.7"/>
	</g>
	<g>
		
			<rect x="356.3" y="1160.6" transform="matrix(0.976 0.2178 -0.2178 0.976 268.7372 -63.174)" class="st20" width="129.4" height="53.7"/>
	</g>
	<path class="st11" d="M505.6,907.9c1.6-8.7,0-21.2,0-21.2s31.6,14.6,26.2,18.6c-1.4,1-2.4,3-3.1,5.4c-1.9,6.8-1.3,16.9-1.3,16.9
		l10.5,12.2C547,952.6,504.8,912.1,505.6,907.9z"/>
	<g>
		<g>
			<path class="st21" d="M400.7,1384.3c0,0,2.9,11.7,5.6,26.2c2.6,14.5,14.9,25.1,16.7,27.7c1.8,2.6,9.8,12.8,2.8,14.1
				c-7,1.2-35.7-17.9-43.5-28.9c0,0-4.7-10.4-5.3-11c-0.6-0.6-4.6,2.5-4.6,2.5l-7.3-5.1c0,0-3.1-2.3-4.2-3.7
				c-1.1-1.3,1.5-8.7,1.9-9.4c0.5-0.8,13.3-18.5,21.6-22.3C392.4,1370.6,400.7,1384.3,400.7,1384.3z"/>
		</g>
	</g>
	<g>
		<g>
			<path class="st22" d="M640.2,1416.4c0,0,10.1,6.1,21.9,14.3c11.8,8.2,27.4,7.2,30.4,7.7c3,0.6,15.5,2.2,11.6,7.8
				c-3.9,5.6-36.5,11.9-49.4,9.6c0,0-10.4-4-11.2-4c-0.9,0-1.4,4.9-1.4,4.9l-8.5,1.5c0,0-3.7,0.5-5.4,0.4c-1.7-0.1-4.8-6.9-5.2-7.8
				c-0.3-0.8-3.7-21.7-0.8-30C625.2,1412.6,640.2,1416.4,640.2,1416.4z"/>
		</g>
	</g>
	<g>
		<g>
			<path class="st11" d="M409.9,1365.7c0,0-9.2,16.9-9.7,19.9c-0.6,3-14.1,3.1-16.8-9.7c0,0,10.6-21.3,10.3-21.9
				C393.4,1353.5,409.9,1365.7,409.9,1365.7z"/>
		</g>
	</g>
	<g>
		<g>
			<path class="st21" d="M505.2,1180.9c0,0-1,3.5-2.6,9.1c-1.1,3.6-2.4,8.1-3.8,13c-6.6,22.6-16.2,54.9-18,59.5
				c-2.8,7.1-15.5,27.9-17.4,29.1c-1.9,1.2-51.8,87-53.4,91.1c0,0-20.5-9.3-24.2-16.1c0,0,34.2-94.6,48-111.2
				c13.3-16,12.6-111.5,24.6-140.4C470.4,1086.2,512.5,1155.9,505.2,1180.9z"/>
		</g>
	</g>
	<g>
		<g>
			<path class="st11" d="M633.7,1397.4c0,0,5.5,17.8,7.2,20.3c1.7,2.5-7.4,11.7-18.1,4.7c0,0-7.5-21.9-8.2-22
				C614,1400.2,633.7,1397.4,633.7,1397.4z"/>
		</g>
	</g>
	<g>
		<g>
			<path class="st23" d="M541.7,1115.7c0,0,42.7,98.6,47.6,113.4c4.9,14.8,2.6,27.4,5.2,33.5c2.7,6.1,41.9,143.6,41.9,143.6
				s-20.8,11.4-30.1,6.8c0,0-35.5-90.5-43.1-105.3c-7.1-13.9-11-41.9-20-59.8c-6.3-12.6-84.1-108.6-84.8-144.1
				C457.8,1068.4,541.7,1115.7,541.7,1115.7z"/>
		</g>
	</g>
	<g>
		<path class="st11" d="M505.9,909c0,0,12.2,5,16.4,16.1c4.2,11.2,2.4,26,2.6,31.1c0.2,5.1,8.5,55.2,9.6,56.7
			c1.1,1.5,17.8,32.4,24.7,48.1c6.9,15.7,21.8,35.8,21.8,35.8l-11.5,6.7c0,0-52.2-61.4-55.3-78.2c-3.1-16.8-23.3-67.4-23.3-67.4
			S480.8,920.3,505.9,909z"/>
	</g>
	<path class="st11" d="M528.7,816.4c10.5-0.2,33.7,5.7,36.5,33.7c0,0-1.1,7.5-3,13.3c-2,5.8,2.8,23.4,1.4,24.2
		c-1.4,0.8-7.1,1.8-7.1,1.8s-6.7,18.8-13.3,18.5c-6.7-0.4-31.8-6.3-43-30.2C488.9,853.7,486.2,817.3,528.7,816.4z"/>
	<path class="st10" d="M565.2,850.1c0,0-17.4,11.1-34.4,13c-17,1.9-28.3,19-28.3,19s-24.9-33.1-3.3-58.6
		C520.7,798,569.8,817.8,565.2,850.1z"/>
	<path class="st18" d="M553.3,1006.1c-5.2,5.5-0.9,18.2-1.6,25.5c-0.2,1.9-0.8,8.3-1.6,16.7c-0.9,8.7-2,19.6-3.2,30.1v0
		c-0.5,4.2-0.9,8.3-1.4,12.3c-1.5,12.4-2.9,22.5-3.8,25c-2.6,7.2-59.9,7.6-82.6-17c0,0-4-8.1,22-55.1c5.2-9.4,0.1-56.2-4.1-68.6
		c-4.2-12.4-5.7-54.5,28.5-67.1c0,0,20.6,17.8,27.6,25.7c7,8,29.9,36.7,32,45.4C567.3,987.6,558.9,1000.1,553.3,1006.1z"/>
	<path class="st14" d="M531.7,905.3c-1.4,1-2.4,3-3.1,5.4c-12.3-7.4-18.3-18.4-18.5-18.7C516.8,900.2,531.7,905.3,531.7,905.3z"/>
	<path class="st24" d="M551.6,1031.6c-0.2,1.9-0.8,8.3-1.6,16.7l0,0c-5.2,5-40.9-63.9-24.1-83.5c0,0,11.9,46.2,13.2,48.6
		C540.4,1015.7,551.6,1031.6,551.6,1031.6z"/>
	<g>
		<path class="st18" d="M506.1,910.7c0,0,13.6,6.3,17.9,18c4.3,11.7,2.5,27.1,2.7,32.5c0.2,5.3,8.9,57.7,10,59.2
			c1.1,1.6,16.6,25.4,23.8,41.8c7.2,16.4,23.5,38.9,23.5,38.9l-19.5,10.9c0,0-46.7-59-51.1-76.3c-4.7-18.5-22.2-72.9-22.2-72.9
			S476.2,916.2,506.1,910.7z"/>
	</g>
	<path class="st24" d="M481.8,1001.7c-0.8,1.6-1.7,3.1-2.5,4.7c-0.9,1.7-1.8,3.3-2.6,4.9c-1.2-14-1.7-48.3-1.7-48.3s1.5,10.1,3,15.5
		C479.4,983.4,481.5,999.3,481.8,1001.7z"/>
	<path class="st10" d="M523.9,811.9c0,0-44.1-3.4-42.2,50.3c2,53.7-7,67.8-26.6,92.1c-19.5,24.3-2.4,54.7,16.5,39
		c18.9-15.6,40.6-50.9,41-88.6C513.1,867,523.9,811.9,523.9,811.9z"/>
	<path class="st11" d="M523.8,862.2c0-3.3-3.5-8.3-9-4c-5.5,4.3,1.3,20.1,5.7,18.7C525,875.5,523.8,865.5,523.8,862.2z"/>
	<path class="st25" d="M502.5,1190c-1.1,3.6-2.4,8.1-3.8,13c-5-10.5-16.5-43.7-16.9-44.7C484.7,1163.1,502.1,1189.4,502.5,1190z"/>
</g>
<g>
	<g>
		<path class="st26" d="M2066.6,1444.1c0,0-15.3,21.4-13.2,24.8c2.1,3.4,18.1,3.9,27.9,0c9.8-3.9,10-29,14.4-39.8
			c1.8-4.5-2.1-17.9-7.7-18.8s-11.6,1.9-11.6,1.9S2082.3,1427.4,2066.6,1444.1z"/>
	</g>
	<g>
		<g>
			<path class="st11" d="M2076.4,1412c0,0-3.2,9.1-4.4,17.8c-1,7.2-10.9,22.6-10.4,24.5c0.5,1.9,13,3.7,18.1-1.3
				c5.1-5,8.4-19.6,9.5-28.3c1-8.1,2.4-12.1,2.4-12.1S2081.3,1406.6,2076.4,1412z"/>
		</g>
	</g>
	<g>
		<path class="st26" d="M2199.4,1444.4c0,0-14.7,21.1-12.6,24.5c2.1,3.4,18.1,3.9,27.9,0c9.8-3.9,10-29,14.4-39.8
			c1.8-4.5-2.1-17.9-7.7-18.8c-5.6-1-12.1,2.1-12.1,2.1S2215,1427.7,2199.4,1444.4z"/>
	</g>
	<g>
		<g>
			<path class="st11" d="M2209.3,1412.4c0,0-1.2,9.9-3,17c-1.9,7-11.9,23-11.4,25c0.5,1.9,13,3.7,18.1-1.3c5.1-5,9.1-19.5,9.5-28.3
				c0.5-8.8-1.2-14.5-1.2-14.5S2214.2,1407,2209.3,1412.4z"/>
		</g>
	</g>
	<g>
		<g>
			<path class="st11" d="M2135.9,1063.5c0,0-13.1,63.5-16.1,79.5c-3,16-11.4,93.5-12.3,106.7c-0.9,13.2-13.7,62.8-13.1,67.5
				c0.6,4.7-18.9,99.2-18.9,99.2s6.7,5.6,13.7,0.5c3.6-2.6,42.8-88.5,42.8-112c0-32.5,23-75,26-82.3c27.6-67.6,22.2-88.3,25.8-92.7
				c3.6-4.4,3.9,2.7,6,12.4s6.6,93.8,9.3,104.5c2.7,10.7,0.6,46.7,2.1,64.9c1.5,18.2,8.1,100.5,8.1,100.5s5.1,8.4,12.3,0.2
				c1.5-1.8,12.4-91.7,12.7-113.3c0.3-21.6,0.6-51.5,1.2-60.9c5.6-89.7,19.3-102.5-2.3-166
				C2192.8,953.5,2135.9,1063.5,2135.9,1063.5z"/>
		</g>
	</g>
	<g>
		<path class="st27" d="M2223.8,1045.7c0,0,37.3,54.5,21.2,170.3c0,0-88.5,12.6-135.8-14.5c0,0,19.6-119.5,26.7-138
			C2143,1044.9,2223.8,1045.7,2223.8,1045.7z"/>
	</g>
	<g>
		<polygon class="st26" points="2096.2,1427.2 2096.2,1449.7 2093.4,1449.7 2093.4,1432.3 		"/>
	</g>
	<g>
		<polygon class="st26" points="2229.5,1427.2 2229.5,1449.7 2226.7,1449.7 2226.7,1432.3 		"/>
	</g>
	<path class="st11" d="M2179.6,804.2c0,0-25,25.2-16.5,57.6c8.5,32.4,22.2,32.6,37.2,18.6c15.1-13.9,23.9-28.6,25.9-44.9
		C2228.2,819.2,2202.4,781.8,2179.6,804.2z"/>
	<path class="st11" d="M2174.7,912.2c0,0,3.7-8.5,6.3-18c0.5-1.7,0.9-3.4,1.2-5.1c1.3-6,1.8-11.9,0.4-16c-4-11.8,25-3.6,25-3.6
		s-5.6,31.1,0,41.6C2213.2,921.7,2174.7,912.2,2174.7,912.2z"/>
	<path class="st28" d="M2248.1,927.1c-4.6-9.1-8-12-16.8-14.8c-4.9-1.6-27-7.3-27-7.3l-26.5-1c0,0-18.2,3-32.3,7.9
		c-14.1,4.9-32.6,31.6-32.6,31.6s25.5,59.9,30.4,77.1c4.9,17.2,1.6,43.8,1.6,43.8c30.6,16.7,79.6-1.6,79.6-1.6
		c-3.7-13.4-3.9-29.1-1.9-40.2c0.2-1.3,0.5-2.6,0.8-3.7c0.3-1.1,0.6-2.6,1-4.3c0-0.1,0-0.2,0.1-0.2c19.5,2,37.7,2.8,38.2-1.1
		C2264.9,995.6,2254.3,939.6,2248.1,927.1z M2234.6,995.4c-0.8-0.1-2.5-0.1-4.2-0.3c2.2-6,4.6-11.4,4.6-11.4
		C2236.3,987.6,2241.6,996.4,2234.6,995.4z"/>
	<path class="st29" d="M2187.7,822.3c0,0,11.9,21.7,19.4,29.5c7.4,7.8,6.5,14,6.5,14s28.9-35.7,8.3-57.2c-20.6-21.5-47.2-12.8-55,6
		c-7.8,18.8-4.9,41.8-4.9,41.8S2162.2,834.2,2187.7,822.3z"/>
	<path class="st29" d="M2195.6,799.6c0,0-2.9-15.9,22-22.2c24.9-6.3,36.1,22.4,33.1,39.9c-3.1,17.5-24.4,62-12.8,67.8
		c11.6,5.8,16.1-6.7,16.1-6.7s-3.6,21.9-19.7,16.8c-16.1-5.1-13.9-40.6-11.5-54.7C2225.2,826.2,2195.6,799.6,2195.6,799.6z"/>
	<path class="st14" d="M2203.6,877.2c-0.1,0.2-6.4,14.7-22.6,17c0.5-1.7,0.9-3.4,1.2-5.1C2182.2,889.1,2191.1,890.9,2203.6,877.2z"
		/>
	<path class="st30" d="M2234.6,983.9c0,0-1.2,2.5-4.5,12.4c-3.3-27.8-1.6-42.2-1.6-42.2C2228.9,969,2234.6,983.9,2234.6,983.9z"/>
	<path class="st28" d="M2199.5,796.2c0,0,17.7,3.4,26.5,17.8c0,0-1.8-13.1-10.6-16.8C2206.6,793.5,2199.5,796.2,2199.5,796.2z"/>
	<path class="st30" d="M2224.5,1014.5c-0.4,1.7-0.8,3.2-1,4.3c-0.3,1.2-0.5,2.4-0.8,3.7c-11-6-18.8-10.6-18.8-10.6
		C2206.8,1012.6,2224.5,1014.5,2224.5,1014.5z"/>
	<path class="st11" d="M2205.8,905.4l-31.1,25.4l3.2-26.7C2177.9,904,2196,900.1,2205.8,905.4z"/>
	<polygon class="st31" points="2183.7,926.4 2174.7,930.7 2205.3,900.4 	"/>
	<path class="st32" d="M2226.4,1012.3c-4.3,17.8,11.6,57.7,11.6,57.7l-31.4,9.8c-4.5,1.4-9.3-1.4-10.3-6
		c-4.2-19.6-14.1-67.7-15.3-94.5c-1.5-34.2,23.4-74.4,23.4-74.4c44.2,7.6,32.1,74.4,32.1,74.4s-1.6,4.2-3.7,10.8c0,0,0,0,0,0
		c-0.5,1.7-1.1,3.5-1.7,5.4C2229.4,1000.5,2227.8,1006.3,2226.4,1012.3z"/>
	<path class="st32" d="M2174.7,905.5l0.5-1.5c0,0-22.6,3.4-34.1,9.2c-11.5,5.7-33.5,35.4-33.5,35.4l28.8,38
		c0,29.2-4.7,81.2-4.7,81.2l13.2,7.6c3.5,2,8-0.5,8-4.5c0.4-19.8,1.3-66.7,1.7-89.4c0.6-29.2,21.5-76.5,21.5-76.5
		C2175.7,905.1,2175.2,905.3,2174.7,905.5z"/>
	<path class="st11" d="M2133.7,1042.5c0,0,21.7,0.8,25.1,0c3.4-0.8,25.9-10.6,27.3-20.3c1.4-9.7-52.4,8.7-52.4,8.7V1042.5z"/>
	<polygon class="st33" points="2201.1,1012.3 2113,1002 2152.8,1034.4 	"/>
	<polygon class="st34" points="2152.8,1034.4 2201.1,1017.9 2201.1,1012.3 2151.1,1028.4 	"/>
	<g>
		<path class="st11" d="M2175.5,996.1c0,0-7.3,0-11.4-0.8c-3.2-0.6-11,0.2-13,2c-2,1.8-8.4,14.1-9.6,14.9c-1.2,0.8,0.6,2.5,2.7,1.6
			c0,0,1.9,5.4,6.7,3.4c4.8-2,8-6.4,10.5-7.2c2.5-0.8,17.1-4.7,17.1-4.7S2179.2,994.8,2175.5,996.1z"/>
	</g>
	<polygon class="st35" points="2179.5,899.1 2162.8,925.6 2154.7,930.7 2173.5,904.3 	"/>
	<polygon class="st31" points="2162.8,925.6 2174.7,930.7 2177.9,904 2179.5,899.1 	"/>
	<path class="st32" d="M2136.4,1030.1c0,0-0.9,11.2,0,13.6c0,0-54.4-5.4-59.4-13c-5.1-7.6-4.9-16.8-4.9-16.8L2136.4,1030.1z"/>
	<polygon class="st36" points="2152.8,1034.4 2127.1,938.9 2029.3,928.5 2056.1,1016.5 	"/>
	<polygon class="st35" points="2205.3,900.4 2183.7,926.4 2195.5,937 2208.2,905.8 	"/>
	<path class="st37" d="M2233.4,988c0,0-0.7,2.2-0.7,2.2c-0.5,1.7-1.1,3.5-1.7,5.4c-4.2,1.3-40.3-1.3-40.3-1.3
		S2220.9,987.2,2233.4,988z"/>
	<path class="st32" d="M2231.3,994.9c-5.8-0.4-15.3-1.1-23.1-1.1c-12.1-0.1-32.9,1.3-32.9,1.3l2.5,13c0,0,36.7,6,56.8,7.4v0
		c0,0,26.5,3,28.5-0.9c2-4-0.7-29.3-5-52.2c-4.3-22.9-8.7-36-14-43.1c-5.3-7.1-33.1-12.6-33.1-12.6l23.6,77.2c0,0,3.4,6.9,3.2,9.9
		c-0.1,0.9-0.7,1.3-1.5,1.5c-0.6-0.1-1.9-0.2-3.7-0.3L2231.3,994.9z"/>
</g>
<g>
	<path class="st11" d="M2034.5,1076.7c0,0,4.4,10.1,8.7,8.9c4.3-1.3,10.6-0.9,12.6-0.7c2.7,0.3,11.3-1.7,10.8,1.5
		c-0.5,3.2-14.1,4-16.9,4.7c-2.8,0.7,7.4,7.9,8.1,10.7c0.7,2.8-13.5,18.9-19.9,13.1c-6.4-5.8-9-16.1-10.3-16.9c-1.3-0.8-7.2-9-7.2-9
		L2034.5,1076.7z"/>
	<path class="st11" d="M2056.5,1100.1c0,0,18.2,18.9,18.3,21.2s-1.1,3.2-2.9,1.5c-1.8-1.7-18.2-17.8-18.2-17.8s17.5,26.1,17.9,27.9
		c0.3,1.1-1.9,3-2.9,2.2c-1-0.8-19.9-25.6-19.9-25.6s16.3,24.4,16.2,26c-0.1,1.5-2.5,2.8-3.8,1.1c-1.3-1.7-17.8-23.5-17.8-23.5
		s10.6,18.5,9.7,19.9c-0.6,0.9-2.4,2.6-5-2.2c-2.6-4.9-10-15.7-10-15.7L2056.5,1100.1z"/>
	<g>
		<path class="st38" d="M1808.6,1432.5c0,0-7,5-10.9,8.5c-3.9,3.5-9.1,7.3-12.4,16.2c-3.3,9,1.9,15.5,10.6,16
			c8.7,0.5,22.1-6.1,23.4-14.1c1.3-7.9,11.6-7,12.9-12.6c1.3-5.6-0.5-12.6-0.5-12.6L1808.6,1432.5z"/>
	</g>
	<g>
		<path class="st39" d="M1809.8,1425.9l-1.2,6.5c0,0,3.6,6.7,23.3,1.5l-1-6.5L1809.8,1425.9z"/>
	</g>
	<path class="st38" d="M1831.9,1433.9c0,0-4.4,0.6-7.6,1.1c-3.2,0.5-9.4-3.5-15.7-2.6l1.9,8
		C1810.6,1440.4,1831.5,1436.5,1831.9,1433.9z"/>
	<g>
		<path class="st38" d="M1934.2,1431.1c0,0,7,5,10.9,8.5c3.9,3.5,9.1,7.3,12.4,16.2c3.3,9-1.9,15.5-10.6,16
			c-8.7,0.5-22.1-6.1-23.4-14.1c-1.3-7.9-11.6-7-12.9-12.6c-1.3-5.6,0.5-12.6,0.5-12.6L1934.2,1431.1z"/>
	</g>
	<g>
		<path class="st39" d="M1933.1,1424.6l1.2,6.5c0,0-3.6,6.7-23.3,1.5l1-6.5L1933.1,1424.6z"/>
	</g>
	<g>
		<path class="st40" d="M1942.5,1275.6c0,14.4-2.1,150.2-2.1,150.2c-1.4,4.8-28.3,6.4-33.1,4c-4.8-2.4-4-137.1-4.8-151.6
			c-0.9-14.5-12.5-121.3-16.8-120.8c-4.2,0.5-28,101.1-31.3,112.1c-3.4,11-16.6,159.5-16.6,159.5c-16.4,5.7-33.2,0.7-33.2,0.7
			s6.3-150.4,6.3-168.2c0-6.6,2-11.6,3.8-46.9c1.4-26.9,8.9-81.9,13.9-119.7c0.2-1.3,0.3-2.6,0.5-3.9c1-7.4,1.7-12.8,2.1-15.4
			c0.2-1.1,0.2-1.7,0.2-1.7c1.3-0.6,2.8-1.2,4.2-1.7c35.1-12.6,102.9,0.7,102.9,0.7s0,0.3,0.1,1c0.1,0.8,0.2,2,0.4,3.5
			c0.4,3.3,1,8.3,1.6,14.1c0,0,0,0.1,0,0.1c0,0.2,0,0.4,0.1,0.5c2.4,20.5,3.5,31.8,5.4,53.7
			C1946.6,1150.6,1942.5,1261.2,1942.5,1275.6z"/>
	</g>
	<g>
		<path class="st13" d="M1907,879.4c0,0,57.5,12.2,62.3,28.2c4.8,16,14.1,53.6,27.1,94.4c7.8,24.4,47.1,80.1,47.1,80.1
			s-22.5,16.6-22.5,14.4s-53.1-73.1-53.7-81.7c-0.6-8.6-16.7-52.8-16.7-52.8s-7.6,84.9-7.6,98c0,13.1,3.3,53.4,3.3,53.4
			s-23.1,19.2-64.5,17.1c0,0-58.5,0.2-57.7-22.8c0.7-20.3,5.7-141.7,4.4-142.4c-1.3-0.6-24.3,28.1-22,33.7
			c2.2,5.5,61.7,25.4,61.7,25.4s1.7,6.4-7.5,20.9c0,0-88.8-26-89.1-31.4s36.9-111,49.1-116.6c17.5-8,63.9-18.6,63.9-18.6L1907,879.4
			z"/>
	</g>
	<path class="st38" d="M1911,1432.6c0,0,4.4,0.6,7.6,1.1c3.2,0.5,9.4-3.5,15.7-2.6l-1.9,8C1932.3,1439.1,1911.4,1435.2,1911,1432.6z
		"/>
	<g>
		<path class="st11" d="M1909,880.7c-0.3,14.1-32.5,28.9-32.5,28.9s-7.8-26.3-5.1-27.6c1.1-0.5,1.4-0.9,1.5-3.3
			c0.1-2.3,0-4.8-0.2-6.4c-0.1-1-0.2-1.6-0.2-1.6s3.9-4.1,8.8-9c8.6-8.5,21-21.2,21-16.8c0,0.2,0.3,0.3,0.3,0.7
			C1900.6,855.3,1909,880.7,1909,880.7z"/>
	</g>
	<g>
		<path class="st14" d="M1896.9,857C1896.9,857,1896.9,857,1896.9,857c-0.1,0.1-1.2,1.8-3.2,4.3c-4.2,5.3-12,13.9-20.9,17.4
			c0.1-2.3,0-4.8-0.2-6.4c-0.9,0-1.8-0.1-2.7-0.3c2.4-4.2,5.9-8.7,5.9-8.7l5.5-1.6L1896.9,857z"/>
	</g>
	<g>
		<path class="st11" d="M1902.1,846.7c-2.4,5.1-4.6,8.8-5.2,10.3c0,0,0,0,0,0c-0.4,1-1.5,2.5-3.2,4.3c-4.5,4.8-12.8,11.2-21,11
			c-0.9,0-1.8-0.1-2.7-0.3c-3.3-0.7-7.2-2.3-9.4-6.5c-17-33.2-4.7-60.4-4.7-60.4s46.4-13.1,53.7,0.8
			C1914.7,815.7,1907.7,834.7,1902.1,846.7z"/>
	</g>
	<g>
		<path class="st41" d="M1856,805.1c0,0-4.3-0.2-5.4-8.4c-1.1-8.1,9.4-13.6,9.4-13.6s8.1-4.4,17.8-5.7c6.9-1,23.8-2,27.8,2.5
			c0,0,9.6-2.2,12.3,13.8c4.2,25.4-14.2,50-14.2,50s0.2-16.6-3.5-18.8c-3.7-2.2-6.8,3-6.8,3l-7.5,1.3c0,0,10.6-20.5-3-21.4
			C1869.1,806.9,1863.8,806.5,1856,805.1z"/>
	</g>
	<g>
		<path class="st11" d="M1893.4,821.2c0.7-7.3,13.9-10.1,13-2.4c-0.9,7.7-7.4,15-10.4,14.8C1893.1,833.3,1892.9,826.8,1893.4,821.2z
			"/>
	</g>
	<g>
		<polygon class="st42" points="1897.7,972.2 1876.1,1083.6 1804.6,1069.7 1823.4,957.8 		"/>
		<polygon class="st43" points="1892.3,977.7 1873.1,1076.6 1809.6,1064.2 1826.4,964.9 		"/>
		<polygon class="st42" points="1872.2,976.3 1873.6,969.4 1847.9,964.4 1845.5,971.1 		"/>
	</g>
	<path class="st44" d="M1883.7,1023.5c0,0,5.5-0.2,7.1-0.4c1.7-0.2,0.6,3.3-1.4,4C1887.5,1027.8,1883.7,1023.5,1883.7,1023.5z"/>
	<path class="st11" d="M1886.9,1049.6c0,0-2.4,0.6-3.6,0.3c0,0-2.1-0.6-3.6-1c-0.5-0.1-0.9-0.2-1.2-0.2c-1.2-0.1-3.7,0-6.4-1.1
		c-2.7-1.1-11.9-5.8-11.9-5.8l2.6-8.5l2-6.8c0,0,15.5-4.1,18.1-3.4c0.3,0.1,0.5,0.1,0.7,0.2c2.2,0.8,3.5,2.3,4.5,2.9
		c0.4,0.2,4.2,2.5,4.4,3.8c0.3,1.8-0.3,3.2-1.2,4.1c0,0,0.4,3.6-1,5.7c0,0,0.5,3.3-1.9,5.4
		C1888.6,1045.2,1888.7,1048.7,1886.9,1049.6z"/>
	<path class="st13" d="M1868.1,1024.4c0,0-2.9,15.6-11.2,25.6c0,0-61.6-25-69.3-28.1c-7.8-3.1,28.2-98.7,28.2-98.7l26.5,9
		l-14.2,26.9c0,0-7,15.1-21.7,39.9C1806.4,999,1815.4,1007.5,1868.1,1024.4z"/>
	<path class="st13" d="M1904.8,940.6c0,0-1.6,29.8,13.3,29.8c14.9,0,13.5-26.8,13.8-29.8H1904.8z"/>
	<polygon class="st45" points="1907.5,940.6 1929.7,940.6 1929.7,936 	"/>
</g>
<g>
	<g>
		<g>
			<g>
				<path class="st11" d="M1443.8,1049c0,0-6.8,4.4-10.7,1.9c-3.3-2.1-9.1-2.4-10.9-2.5c-2.4-0.1-9.5-3.2-9.7-0.2
					c-0.2,3,11.6,5.7,13.9,6.7c2.4,1.1-8,6.1-9.2,8.5c-1.2,2.4,8.2,19.1,14.9,14.8c6.7-4.3,11-13.3,12.4-13.8c1.3-0.5,5-2.9,5-2.9
					L1443.8,1049z"/>
			</g>
		</g>
	</g>
	<g>
		<path class="st46" d="M1646.1,1423.9c0,0-15.1,22.1-20.4,26.8c0,0-10.6,5.5-10.9,9.9c-0.6,8.3-1.4,16,12.5,16.4
			s22.9-2.9,25.4-11.3c2.5-8.4,8.6-15.7,8.6-15.7v17.6h3.1c0,0,0.8-17,1-20.2c0.2-3.1,2.2-15.2-4.4-20.5
			C1654.5,1421.6,1646.1,1423.9,1646.1,1423.9z"/>
	</g>
	<g>
		<path class="st11" d="M1623.7,1451.8c0,0,7.5,2.1,16.5-0.1c8.9-2.3,17.5-23.7,20.1-25.4l2.3-8.6h-17.4c0,0-0.6,6.3-3.4,11.8
			S1623.7,1451.8,1623.7,1451.8z"/>
	</g>
	<g>
		<path class="st46" d="M1547.8,1415.6c0,0-2.3,5.4-6.6,11c-3.1,4.1-12.9,21-17.2,22.1c-4.3,1.2-17.6,3.5-18.8,11
			c-1.2,7.4-1.8,12.7,11.4,13.3c13.1,0.6,21.7,1.4,28-7.8c6.3-9.2,16.3-15.9,16.3-15.9v24h5.1c0,0,2.3-25,3.7-26.8
			c1.4-1.8,4.9-21-7.2-30.9C1550.2,1405.6,1547.8,1415.6,1547.8,1415.6z"/>
	</g>
	<g>
		<path class="st11" d="M1524,1448.7c0,0,11.7,2.9,16.3,0c4.5-2.9,19.8-28.8,24.9-30.4c0,0-4.9-10-17.3-2.7
			C1547.8,1415.6,1527.3,1444.4,1524,1448.7z"/>
	</g>
	<g>
		<path class="st47" d="M1652.8,1056c0,0,16.6,21.5,21.1,47.1c4.5,25.6-2.7,111.3-2.5,123.9c0.2,12.6,11.7,52.9,9.4,76.7
			c-2.3,23.8-15.2,122.1-15.2,122.1l-28.7-0.5c0,0,5.8-107.2,4.3-117.1c-1.5-10-6.1-52.5-6.7-56.6c-0.6-4.1-32.7-112.9-32.7-131.3
			C1601.7,1101.9,1612.8,1025.9,1652.8,1056z"/>
	</g>
	<g>
		<path class="st47" d="M1569.6,1064.4c0,0-27.2,103.9-30.4,118.3c-3.2,14.4-9.7,33.2-9.4,35.8c0.3,2.6,3.4,47,3.4,47l7.7,151h28.7
			c0,0,9.2-96,10.7-115.4c1.5-19.4-10.6-49.3-7.6-57.6c2.9-8.2,47.3-103.1,47.3-103.1S1653.5,1034.3,1569.6,1064.4z"/>
	</g>
	<g>
		<path class="st11" d="M1578,908.9c0,0-14.5,0.6-22.7,9.4c-8.2,8.8-12.3,23.3-14.5,28c-2.2,4.7-29.4,48.2-30.9,49.1
			c-1.6,1-29.2,23.3-41.8,35.2c-12.5,11.9-37,25.3-37,25.3l9.2,12.9c0,0,74.2-39.6,83.6-54c9.4-14.5,48-53.8,48-53.8
			S1602.7,925,1578,908.9z"/>
	</g>
	<g>
		<path class="st48" d="M1578,908.9c0,0-14.5,0.6-22.7,9.4c-8.2,8.8-12.3,23.3-14.5,28c-2.2,4.7-29.4,48.2-30.9,49.1
			c-1.6,1-24.2,16.5-36.8,28.5c-12.5,11.9-35.4,26-35.4,26l13.4,17c0,0,63.6-35.3,74-49.1c11.1-14.7,46.9-56.9,46.9-56.9
			S1602.7,925,1578,908.9z"/>
	</g>
	<g>
		<path class="st28" d="M1597,901.3c0,0-14.1,6.7-19,7.6c-4.9,1-23.9,25.7-27.2,34.7c-3.3,9,0,22.5,6.9,38.4
			c6.9,15.9,0.4,21.1,3.5,37c3.1,15.9,5.9,49.4,5.3,58.3c-0.6,8.8,79.2,10.5,97.4-5.6c0,0-18.3-27.4-20.7-31.3s-0.4-25.3,1.8-30.7
			c2.2-5.5,26.4-46.4,26.4-46.4s1.8-41.5-8.8-49.7c-9.2-7.1-34.3-9.7-38.8-11.3C1619.3,900.6,1606.2,899.9,1597,901.3z"/>
	</g>
	<g>
		<path class="st31" d="M1592.5,932.7l-8.6-10l7.4-26.4C1591.4,896.3,1593.9,911,1592.5,932.7z"/>
	</g>
	<g>
		<g>
			<g>
				<path class="st11" d="M1418.7,1062.2c0,0-19.6,14.5-20.1,16.6c-0.5,2.1,0.3,3.1,2.2,1.8c1.9-1.3,19.4-13.5,19.4-13.5
					s-20.4,21.1-21.1,22.7c-0.5,0.9,1.1,3,2.1,2.4c1.1-0.6,22.5-20.3,22.5-20.3s-19,19.7-19.2,21.2c-0.2,1.3,1.7,2.9,3.2,1.5
					c1.5-1.4,20.2-18.7,20.2-18.7s-12.9,15.2-12.4,16.6c0.3,0.9,1.6,2.7,4.8-1.3c3.2-4,11.8-12.7,11.8-12.7L1418.7,1062.2z"/>
			</g>
		</g>
	</g>
	<g>
		<path class="st11" d="M1614.8,801.2c-8.4-2.9-39.2-10.2-46.4,29.2c-7.2,39.4,14.5,67.4,34.5,59.9c20-7.4,32.3-34.7,33.5-55.4
			C1637.5,814.2,1625.4,805,1614.8,801.2z"/>
	</g>
	<g>
		<path class="st49" d="M1568.4,830.4c0,0-1.5-33.7,32-34.9c33.5-1.2,42.5,26.4,39.7,46.5c-2.7,20.1-16.6,30.7-16.6,30.7
			s1.2-16.3-5.3-20.5c-6.5-4.2-32.5-12.6-43.9-32.2C1574.3,820,1569,826.2,1568.4,830.4z"/>
	</g>
	<g>
		
			<ellipse transform="matrix(0.9499 -0.3124 0.3124 0.9499 -174.4881 550.7342)" class="st49" cx="1631.3" cy="819.9" rx="22.3" ry="25.6"/>
	</g>
	<g>
		<path class="st11" d="M1646.2,908.9c0,0,17.8-5.1,28,14.5c10.2,19.6,7.6,30.2,10,39c2.3,8.8,11.7,67.8,12.3,70.3
			c0.6,2.5,9.6,32.5,8.4,41.7c-1.2,9.2-9.6,78.9-9.2,81.3c0.4,2.3-16.3-2.3-16.3-2.3s0.7-71.2,0.1-77.1c-0.6-5.9-1.2-36.7-5.6-44.6
			c-4.4-7.9-15.3-56.4-17.6-61.4C1654,965.3,1631.2,915.3,1646.2,908.9z"/>
	</g>
	<g>
		<path class="st11" d="M1590.3,885c0,0,2.8,25.9,2.2,34.3c0,0,14.6,14.7,31.3-17.1c0,0-7-13.1-1.7-31
			C1627.3,853.3,1590.3,885,1590.3,885z"/>
	</g>
	<g>
		<path class="st17" d="M1659.6,1196.2v-24c0-3.9,3.1-7,7-7h38c3.9,0,7,3.1,7,7v24c0,3.9-3.1,7-7,7h-38
			C1662.8,1203.2,1659.6,1200.1,1659.6,1196.2z M1666.6,1170c-1.3,0-2.3,1-2.3,2.3v24c0,1.3,1,2.3,2.3,2.3h38c1.3,0,2.3-1,2.3-2.3
			v-24c0-1.3-1-2.3-2.3-2.3H1666.6z"/>
	</g>
	<g>
		<g>
			<g>
				<g>
					<g>
						<path class="st11" d="M1699.1,1177.9c0,0,1.6-2.6,1.7-4c0,0,0.1-2.7,0.2-4.6c0.1-0.6,0.1-1.1,0.2-1.5c0.3-1.4,1.4-4.4,1.2-7.9
							c-0.2-3.5-5-18.6-5-18.6l-8.9,0.3l-8.3-0.9c0,0-10.1,19.2-10.3,22.6c0,0.3,0,0.6,0,0.9c0.1,2.8,1.4,4.9,1.6,6.4
							c0.1,0.5,1.3,5.9,2.8,6.6c2,1,3.8,0.9,5.2,0.1c0,0,4.1,1.8,6.9,1c0,0,3.7,1.8,7-0.2
							C1693.4,1178.3,1697.4,1179.7,1699.1,1177.9z"/>
					</g>
				</g>
			</g>
		</g>
	</g>
	<g>
		<polygon class="st11" points="1592.5,919.3 1592.5,932.7 1609.3,920.1 		"/>
	</g>
	<g>
		<polygon class="st31" points="1592.5,932.7 1599.5,924.1 1623.1,900.6 1630.7,907.9 		"/>
	</g>
	<g>
		<path class="st48" d="M1626.3,902.8c0,0-19.8,30-20.7,43.2c-0.9,13.2,7.4,112.1,14,143.9c6.6,31.8,54.7-3.6,54.7-3.6
			s-32.3-52.2-19.9-94.1c12.4-41.8,19.4-69.6,19.4-69.6s-8.4-13.5-21.8-15.5C1638.5,905.1,1626.3,902.8,1626.3,902.8z"/>
	</g>
	<g>
		<path class="st48" d="M1547.8,947.3c0,0,3.2,30,9.3,44.9c0,0,2.5,31.7,2.2,42.9c-0.4,11.2-3,53.4-3,53.4l13.8,8.1
			c2.8,1.6,6.2-0.6,5.8-3.8c-3.9-32.1-16.6-154,10.8-186.7l-11,3.2C1575.5,909.2,1552.9,930.2,1547.8,947.3z"/>
	</g>
	<g>
		<path class="st11" d="M1614.8,845.1c1.2-3.1,5.3-4,7.6-2.2c2.3,1.8,3.7,7,0,13.9C1618.8,863.7,1605.6,868.5,1614.8,845.1z"/>
	</g>
	<g>
		<polygon class="st35" points="1583.9,922.7 1573.1,925.7 1591.4,896.3 		"/>
	</g>
	<g>
		<polygon class="st35" points="1599.5,924.1 1609.3,937 1629.6,903.4 1623.1,900.6 		"/>
	</g>
	<g>
		<path class="st48" d="M1646.2,908.9c0,0,17.8-5.1,28,14.5c10.2,19.6,10.1,27.9,11.5,37.5c1.3,9,13.7,62.7,14.3,65.2
			c0.6,2.5,4.7,36.1,5,48.3c0.2,9.3-2,70.1-1.6,72.4c0.4,2.3-28.1-4.1-28.1-4.1s3.2-56.1,2.6-62c-0.6-5.9-1.8-35.2-4.7-43.8
			c-3.4-10.1-16.7-61-19-66C1651.7,966,1631.2,915.3,1646.2,908.9z"/>
	</g>
	<g>
		<path class="st14" d="M1590.8,890.7l0.5,5.1c0,0,11.6,2.3,26.8-16.3C1618.2,879.5,1607.4,892.7,1590.8,890.7z"/>
	</g>
	<g>
		
			<rect x="1614.3" y="1192.9" transform="matrix(-1 -1.224647e-16 1.224647e-16 -1 3371.2578 2488.0955)" class="st50" width="142.7" height="102.2"/>
	</g>
	<g>
		
			<rect x="1614.3" y="1192.9" transform="matrix(-1 -1.224647e-16 1.224647e-16 -1 3371.2578 2445.1326)" class="st51" width="142.7" height="59.2"/>
	</g>
	<path class="st47" d="M1549.7,987.4c0,0-5.2-20.1,2-38.9c0,0-5.4,17.2,2.1,33.8L1549.7,987.4z"/>
	<path class="st47" d="M1658.4,985.2c0,0-9.4-32.7-10-34.5c0,0,1.5,29.4,5.3,44.1C1653.7,994.8,1655.8,988.8,1658.4,985.2z"/>
</g>
<g>
	<path class="st52" d="M1062.4,1499.4h277.8c19.9,0,36-16.1,36-36v-740c0-19.9-16.1-36-36-36h-277.8c-19.9,0-36,16.1-36,36v740
		C1026.4,1483.3,1042.5,1499.4,1062.4,1499.4z"/>
	<linearGradient id="SVGID_8_" gradientUnits="userSpaceOnUse" x1="1012.3955" y1="1092.8639" x2="1425.7129" y2="1092.8639">
		<stop  offset="0" style="stop-color:#FF9F55"/>
		<stop  offset="1" style="stop-color:#FFD255"/>
	</linearGradient>
	<path class="st53" d="M1051.8,1505.6h334.4c21.8,0,39.4-17.7,39.4-39.4V719.6c0-21.8-17.7-39.4-39.4-39.4h-334.4
		c-21.8,0-39.4,17.7-39.4,39.4v746.6C1012.4,1488,1030.1,1505.6,1051.8,1505.6z"/>
	<g>
		<g>
			<g>
				<g>
					<path class="st28" d="M1244.8,964.1L1260,988l14,22c0-0.1-1-3.5-2.5-13.1c-0.3-1.8-0.6-3.9-1-6.2c-0.1-0.7-0.2-1.4-0.4-2
						c0,0,0,0,0,0C1264,974.9,1245.5,964.5,1244.8,964.1C1244.8,964.1,1244.8,964.1,1244.8,964.1z"/>
				</g>
			</g>
		</g>
	</g>
	<g>
		<g>
			<g>
				<path class="st54" d="M1269.9,988.5L1269.9,988.5c0,0,0.8,1.7,1.5,8.4l-5.5-8.3c0,0-9.8-14-13.1-17.7c-3.3-3.6-7.9-6.8-7.9-6.8
					S1264.1,973.4,1269.9,988.5z"/>
			</g>
		</g>
	</g>
	<path class="st55" d="M1391.2,723.4v740c0,19.9-16.1,36-36,36h-277.8c-19.9,0-36-16.1-36-36v-740c0-19.9,16.1-36,36-36h277.8
		C1375.1,687.4,1391.2,703.5,1391.2,723.4z"/>
	<g>
		<path class="st38" d="M1168.7,1426c0,0,5.8,16,15.5,22.8c9.7,6.8,19.7,16.5,17.1,23.3c-2.6,6.8-35,3.2-48.6-16.5
			c-8.6-12.4-17.3-15.2-17.2-21.1c0-5.9,10-17.7,10.5-19.3C1146.5,1413.1,1168.7,1426,1168.7,1426z"/>
		<path class="st39" d="M1171.1,1420.2c0,0-2.1,5.8-2.4,5.8c-0.3,0-25-6.6-22.8-10.9c1.8-3.4,5.2-7.1,5.2-7.1L1171.1,1420.2z"/>
		<g>
			<path class="st56" d="M1108.2,1151.2c0,0,7.2-17,12.7-18.1c5.5-1.1,1,3.4,1,3.4s-7,11.7-9.4,16.6
				C1112.4,1153.4,1108.2,1151.2,1108.2,1151.2z"/>
		</g>
		<g>
			<path class="st11" d="M1143.3,1119.7c0,0-1.5,8.2-1.8,16.6c-0.3,8.3,1,11.5-1.4,15.5c-1.9,3-6.4,4.1-7,2.8
				c-0.6-1.4,3.5-14.1-1.8-15.9s-4,16.2-6.7,13.9c-2.7-2.2-12.4-13-9.3-19.1c3-6.1,9.4-9,12.5-18.6c2.8-8.7,6.7-11.4,6.7-11.4
				L1143.3,1119.7z"/>
		</g>
		<g>
			<path class="st57" d="M1132.1,1138.2c0,0,6.3,4.2-2.4,27.6l-7.4-4.1c0,0,4.8-13,4.9-20.9
				C1127.2,1140.9,1129.2,1136.4,1132.1,1138.2z"/>
		</g>
		<g>
			<polygon class="st57" points="1150.1,1179.1 1094.9,1139.9 1068.3,1215.6 1116.4,1273.8 			"/>
		</g>
		<path class="st38" d="M1419.7,1292.5V1441c-15.2-46.1-48.4-145.8-56.4-162.2c-7-14.3-70.1-96.7-74.8-90.8c-4.6,5.9-30.5,75-34,92
			c-3.4,17-80.8,143.2-80.8,143.2s-1.4-0.3-3.4-0.8c-5.4-1.6-15.7-5.3-21-12.2c-0.6-0.8-1.2-1.6-1.6-2.5c0,0,56.9-123.5,62.2-146.8
			c1.9-8.2,4-48,11.5-89.6c3.4-18.7,7.8-37.7,13.8-54.3c2.4-6.5,9.2-9.2,18.4-9.5c1.6-0.1,3.2,0,4.9,0c2.8,0.2,5.8,0.5,8.8,0.9
			c7,1,14.5,2.8,22,5c6.3,1.8,12.6,3.9,18.5,6c6.8,2.4,13.2,4.9,18.4,7c1.7,0.7,3.3,1.4,4.8,2c1.6,0.7,3.1,1.3,4.3,1.8
			c3.3,1.4,5.2,2.3,5.2,2.3s10,17.7,22.3,40.2c17,31,38.6,70.9,45.2,86.2C1412.1,1268.1,1416.1,1280.2,1419.7,1292.5z"/>
		<path class="st58" d="M1396.3,1032.1l23.4,26.1v43.2c-16.7-15.9-36.4-36.2-43.7-42.6c-1.3-1.1-2.2-1.8-2.6-2c-1-0.4-2.9-3-5.2-6.9
			c-0.6-1.1-1.4-2.3-2.1-3.6c-1.1-2-2.2-4.1-3.4-6.3c-0.8-1.5-1.6-3-2.4-4.6c-0.8-1.6-1.6-3.2-2.4-4.7c-1.6-3.2-3.1-6.3-4.5-9.3
			c-1.1-2.2-2.1-4.4-3-6.3c-0.6-1.3-1.2-2.5-1.7-3.6c-0.5-1.1-1-2.1-1.4-3c-1-2.2-1.6-3.6-1.8-3.9c0.1,1,0.8,8.6-0.2,18.5
			c-0.4,4.3-1.2,9.1-2.4,13.9c-1.5,5.8-2.2,13.5-2.5,21.6v0.2c0,0.2,0,0.4,0,0.6v0.2c-0.4,14.7,0.6,30.6,1,39
			c0.6,13.3-3.8,19.2-3.8,19.2s-0.6-0.1-1.7-0.2l-2.9-0.4l-3.3-0.4l-4.4-0.6l-17.2-2.4l-6.3-0.9l-1.4-0.2l-10.9-1.6l-22-3.1
			l-8.8-1.2l-4.8-0.7l-11.6-1.6l-5.2-0.8c0,0-0.1,0-0.1,0s-4.5-31.6-4.8-48.7c-0.3-16-9-48.6-10.2-52.9c0-0.1-0.1-0.2-0.1-0.3
			c0,0,0,0,0,0c0,0,0,0,0,0c0,0,0-0.1,0-0.1s-25.2,26.4-30,38c-1.2,2.8-4.4,9.6-8.7,18.2c-0.1,0.2-0.2,0.4-0.2,0.6
			c-11.6,23.5-30.6,60.2-38,68.8c-0.9,1.1-1.6,1.8-2.2,1.8c-0.2,0-0.4,0.1-0.7,0.1c-4.6,0-12.3-6.4-16.1-9.8
			c-1.4-1.2-2.2-2.1-2.2-2.1s0.3-0.8,1-2.1c5.4-12.3,32.5-74,39.4-88.6c0.6-1.4,1.1-2.3,1.4-2.8c0.1-0.2,0.2-0.4,0.4-0.8
			c5.1-9.9,39.9-85.5,45.2-89.3c0.6-0.4,1.6-1,2.8-1.6c0.4-0.2,0.9-0.4,1.4-0.7c0,0,0.1,0,0.2-0.1c0.9-0.4,1.8-0.8,2.8-1.3
			c0.3-0.2,0.7-0.3,1-0.5c0.7-0.3,1.4-0.6,2.2-1c4.2-1.8,9.2-3.9,14-5.9c1.4-0.6,2.7-1.1,3.9-1.6c1.9-0.8,3.7-1.4,5.4-2.1
			c0.2-0.1,0.4-0.2,0.6-0.2c5.6-2.2,9.9-3.6,10.8-3.7h0.7c0.4,0,0.8,0,1.4,0.1c7,0.4,27.7,2.3,34.4,3c1.4,0.1,2.1,0.2,2.1,0.2
			s3.2,1.5,8,3.6l0,0l0.4,0.2c2.8,1.3,6.1,2.8,9.6,4.4c7.3,3.4,15.5,7.2,22,10.3c6.2,3,15.7,8.1,16.4,8.6L1396.3,1032.1z"/>
		<path class="st59" d="M1337.6,1117.9c0,0,2.3,2.8,3,14.5c0,0-95.3-11.1-105.4-15.5c0,0-0.4-12.9,1.7-13.2
			C1239.3,1103.5,1337.6,1117.9,1337.6,1117.9z"/>
		<path class="st11" d="M1256.4,911.7c0.3,15,29.3,23.1,29.3,23.1s12.1-15.2,9.2-16.6c-1.1-0.6-1.6-2.8-1.7-5.4
			c-0.1-2.4,0-5.1,0.2-6.8c0.1-1.1,0.2-1.7,0.2-1.7s-4.1-4.4-9.4-9.6c-9.2-9.1-21.8-20.7-21.9-16.1c0,0.2,0,0.5,0.1,0.9
			C1264.5,889.9,1256.4,911.7,1256.4,911.7z"/>
		<path class="st60" d="M1258.8,1106c0,0-2.1,13.1-2.3,16.5l-4.4-0.9c0,0,1.2-13.9,1.9-16.2L1258.8,1106z"/>
		<path class="st38" d="M1329.7,1116.3c0,0,1.7,11.9,1.7,16.4l-4.7-0.6c0,0-1-14.9-1.5-16.4L1329.7,1116.3z"/>
		<path class="st14" d="M1267.5,889.8C1267.5,889.8,1267.5,889.8,1267.5,889.8c0.1,0.1,1.3,1.9,3.4,4.6c4.4,5.6,12.8,14.8,22.2,18.5
			c-0.1-2.4,0-5.1,0.2-6.8c1,0,1.9-0.1,2.9-0.3c-2.6-4.5-6.3-9.2-6.3-9.2l-5.8-1.7L1267.5,889.8z"/>
		<path class="st11" d="M1261.9,878.8c2.5,5.4,4.9,9.4,5.6,11c0,0,0,0,0,0c0.4,1,1.6,2.7,3.4,4.6c4.8,5.1,13.6,11.9,22.4,11.7
			c1,0,1.9-0.1,2.9-0.3c3.5-0.8,7.7-2.4,10-6.9c18.1-35.4,5-64.3,5-64.3s-49.4-14-57.1,0.9C1248.5,845.8,1256.1,866,1261.9,878.8z"
			/>
		<path class="st61" d="M1311.1,834.5c0,0,4.6-0.3,5.7-9c1.1-8.6-1.1-11-1.1-11s-20.4-8.5-27.7-9.6c-7.3-1.1-25.3-2.2-29.6,2.7
			c0,0-10.3-2.4-13.1,14.6c-4.4,27,15.1,53.2,15.1,53.2s-0.2-17.6,3.7-20c3.9-2.3,7.3,3.2,7.3,3.2l8,1.4c0,0-12.1-26.1,2.4-27.1
			C1296.3,832.1,1302.8,836,1311.1,834.5z"/>
		<path class="st11" d="M1271.2,851.7c-0.8-7.8-14.8-10.7-13.9-2.6c0.9,8.1,7.9,16,11.1,15.7
			C1271.6,864.5,1271.8,857.6,1271.2,851.7z"/>
		<path class="st12" d="M1191.9,1039.5c-5.5,11.2-40,86.4-46,87.5c-6,1.1-22.1-12.8-22.1-12.8s38.5-84.8,41.7-90.5
			c3.2-5.7,40.1-86.2,45.6-90.1c3.2-2.3,16.8-8.1,28.3-12.6c2.1-0.8,4.1-1.6,6-2.3c2.4,2.7,41.7,47.1,38,86.4
			c-1.1,11.8-2.6,31.1-5.9,51.4c-3.4,21.1-8.8,44.9-12.4,62.9c-6.4,32.5-20.5,63.5-20.5,63.5l-36.8-18.4c-5.8-2.9-8.5-9.6-6.3-15.7
			c8.3-23.2,24.8-69.9,24.8-90.2c0,0-1.3-45.9-4.5-56.8C1221.9,1001.6,1198.2,1026.6,1191.9,1039.5z"/>
		<path class="st12" d="M1419.7,1057.3v45.6c-16.4-16-36.4-37.4-43.7-44.1c-1.3-1.1-2.2-1.8-2.6-2c-1-0.4-2.9-3-5.2-6.9
			c-0.7-1.1-1.4-2.3-2.1-3.6c-1.1-2-2.2-4.1-3.4-6.3c-0.8-1.5-1.6-3-2.4-4.6c-0.8-1.6-1.6-3.2-2.4-4.7c-1.6-3.2-3.1-6.3-4.5-9.3
			c-1.1-2.2-2.1-4.4-3-6.3c-0.6-1.3-1.2-2.5-1.7-3.6c-0.5-1.1-1-2.1-1.4-3c-1-2.2-1.6-3.6-1.8-3.9c1.4,6,0.9,12.2-0.2,18.5
			c-2,11.2-5.8,22.9-4.9,35.5v0.2c3,38.1,19.1,92.1,23.8,107.4c0.7,2.2,0.2,4.6-1.3,6.4c-0.2,0.3-0.4,0.5-0.6,0.8l-11.4,10.6
			c0,0-9.9-30.6-15-52.1c-0.1-0.6-0.3-1.2-0.4-1.8c-1.2-5-2-9.5-2.4-12.8v0c-0.9-8.6-2.8-18.6-4.8-29.2c-2-10.6-4-22-5.2-33.1
			c-3.2-28.3-6.5-56.4-8.8-72.9c-0.8-5.4-1.5-10.3-2.2-14.9c-5.1-32-9-44.8-9-44.8l0.2-0.2c2.8,1.3,6.1,2.8,9.6,4.4
			c7.3,3.4,15.5,7.2,22,10.3c6.2,3,15.7,8.1,16.4,8.6l45,86.7L1419.7,1057.3z"/>
		<path class="st62" d="M1253.4,955.8l14.1,7.9l-6,6.1l16,86.5c3.3-20.3,4.8-39.5,5.9-51.4c3.7-39.3-35.6-83.7-38-86.4
			c-1.9,0.7-3.9,1.5-6,2.3L1253.4,955.8z"/>
		<path class="st62" d="M1302.8,921.9c0,0,5.3,17.2,11.4,60.1c2.4,16.5,5.7,44.5,8.8,72.9l3.3-81.1l-6.7-7.3l6-7.5l-12.8-32.6
			c-3.5-1.6-6.8-3.1-9.5-4.4L1302.8,921.9z"/>
		<path class="st12" d="M1239.4,921c-11.5,4.5-28.6,10.4-31.8,12.7c-5.5,3.9-38.9,84.3-42.2,90L1239.4,921z"/>
		<polygon class="st57" points="1116.4,1273.8 1108.2,1272.5 1061.9,1214.5 1089.7,1138.5 1094.9,1139.9 		"/>
		<path class="st63" d="M1244.7,918.8l11.7-7.1c0,0,0.3,6.4,29.3,23.1l-8.2,23.1L1244.7,918.8z"/>
		<path class="st63" d="M1293.3,914.9c0,0-0.5,6.9-7.7,19.9l16,20.9l1.2-33.9L1293.3,914.9z"/>
		<path class="st64" d="M1285.6,934.9c0,0-3.1,12.4-2,15.9c0,0,6.8,2.5,11.7-0.6C1295.3,950.1,1291.8,941.4,1285.6,934.9z"/>
		<g>
			<path class="st65" d="M1301.6,1114.1c1.7-8.8,0.1-35.1,0-36.2l-1.5,0.1c0,0.3,1.7,27.2,0,35.8L1301.6,1114.1z"/>
		</g>
		<path class="st66" d="M1289.5,1110.1c0,0,14,1.7,18.7,2.8l-0.6,15.7l-18.4-2L1289.5,1110.1z"/>
		<path class="st64" d="M1292.5,949c0,0,13.8,38.8,15.5,83.1c1.7,44.3-2.9,55.7-2.9,55.7l-17.3,15.5l-5.8-20.2
			c0,0,15.6-49.2,7.2-106c-1.5-10.3-3.8-29.8-3.8-29.8L1292.5,949z"/>
	</g>
	<path class="st67" d="M1419.7,723.4v740c0,19.9-16.1,36-36,36h-306.2c-19.9,0-36-16.1-36-36v-740c0-19.9,16.1-36,36-36h306.2
		C1403.5,687.4,1419.7,703.5,1419.7,723.4z"/>
	<g>
		<g>
			<g>
				<path class="st11" d="M1451.3,1098c0,0,5.6,8.2,8.6,8.5c2.9,0.3,7.1,2.9,9.7,3.6c2.6,0.8,10.4,0.3,12.7,2c0.9,0.7,4.9,7.3,7,8.5
					c2.1,1.2,6.5,3.2,5.4,4.9c-1.2,1.8-5.7,1.1-5.7,1.1s1.8,1.2,1.3,3.1c-1,3.6-3.4,4-3.4,4s1,2.5,0.2,3.8c-1.8,3.1-4,3.4-4,3.4
					s0,2-1.6,3.8c-2.1,2.3-5.1,1.5-5.1,1.5s-2,3.4-4.2,3.1c-2.2-0.3-3.6-1.7-5.2-2.4c-1.6-0.7-13.4-11.3-18.5-22
					c-5-10.7-13.2-17-13.2-17L1451.3,1098z"/>
			</g>
		</g>
		<g>
			<path class="st68" d="M1488.1,1125.3c0,0-10.3-8.9-14.9-8.1c-4.6,0.8-1.1,4.2-1.1,4.2s-3.4-3.4-6.5-1c-3.1,2.5,1.3,6.2,1.3,6.2
				s-3.3-1.9-5.4,1.6c-2.1,3.5,2.2,5.8,2.2,5.8s-6.2-0.1-4.4,4.6c3,8,12.7,10.6,12.7,10.6s2.4,0.4,4.2-3.1c0,0,5.8,1.4,6.7-5.3
				c0,0,6.5-2.3,3.8-7.3C1486.8,1133.7,1493.5,1130.9,1488.1,1125.3z"/>
		</g>
		<path class="st38" d="M1456.6,1467.2c0,0,14,11.3,26.5,12c12.5,0.8,26.8,4,28.1,11.6c1.3,7.6-37.8,17.2-52.8,11.8
			c-22.4-8-23.9-4.2-27.1-9.6c-3.2-5.3-0.7-21.4-1.2-23.2C1429.5,1467.7,1456.6,1467.2,1456.6,1467.2z"/>
		<path class="st39" d="M1454.2,1461.1c0,0,2.6,5.9,2.4,6.1c-0.2,0.2-26.5,7.8-26.5,2.7c0-4.1,0.2-8.7,0.2-8.7L1454.2,1461.1z"/>
		<path class="st38" d="M1459.7,1460.9c0.3,1.6-1.4,2.6-4.2,3.2c-6.7,1.5-19.6,0.9-25.3,0.6c-1.8-0.1-2.8-0.2-2.8-0.2
			s-53.6-164.2-64.1-185.5c-7-14.3-70.1-96.7-74.8-90.8c0,0-11.2-25.6-16.3-64.5c-0.6-4.7-1.2-9.6-1.6-14.7c6,1,12.4,2.6,18.8,4.4
			c6.3,1.8,12.6,3.9,18.5,6c6.8,2.4,13.2,4.9,18.4,7c1.7,0.7,3.3,1.4,4.8,2c1.6,0.7,3.1,1.3,4.3,1.8c3.3,1.4,5.2,2.3,5.2,2.3
			s10,17.7,22.3,40.2c17,31,38.6,70.9,45.2,86.2c10.6,24.6,21.5,68.8,22.9,86.1C1432.9,1366.7,1458.4,1454.5,1459.7,1460.9z"/>
		<path class="st58" d="M1461.5,1105c0,0-0.5,0.6-1.3,1.5c-2.8,3.2-9.4,10.9-13.7,15c-0.2,0.1-0.3,0.2-0.4,0.4
			c-0.5,0.4-1.4,0.2-2.8-0.5c-12.1-6.3-55.6-52.2-67.4-62.5c-0.8-0.7-1.5-1.2-2-1.6c-0.1-0.1-0.2-0.1-0.3-0.2
			c-0.2-0.1-0.3-0.2-0.4-0.2c-1-0.4-2.9-3-5.2-6.9c-0.6-1.1-1.4-2.3-2.1-3.6c-0.5-1-1.1-2-1.6-3c-0.6-1.1-1.1-2.2-1.7-3.3
			c-0.8-1.5-1.6-3-2.4-4.6c-2.8-5.4-5.6-11.2-8-16.2c-0.6-1.2-1.2-2.4-1.7-3.6c-0.9-1.9-1.7-3.6-2.4-5.2c-0.3-0.7-0.6-1.3-0.9-1.9
			c-0.2-0.5-0.4-0.9-0.6-1.3c-0.2-0.4-0.3-0.8-0.5-1c-0.4-0.8-0.6-1.4-0.7-1.6c0,0,0,0,0,0c0.1,1,0.8,8.6-0.2,18.5c0,0,0,0,0,0
			c-0.4,4.3-1.2,9-2.4,13.9c-1.5,5.8-2.2,13.5-2.5,21.6v0.2c0,0.2,0,0.4,0,0.6v0.2c-0.4,14.7,0.6,30.6,1,39
			c0.6,13.3-3.8,19.2-3.8,19.2s-0.6-0.1-1.7-0.2c-0.7-0.1-1.7-0.2-2.9-0.4l-3.3-0.4l-4.4-0.6l-17.2-2.4l-6.3-0.9l-1.4-0.2l-10.9-1.6
			l-18.9-2.6v-0.3c-0.3-3.8-0.6-7.8-0.7-11.8v0c-0.2-5.9-0.3-12-0.1-18.3c0.4-16.1,2-30.2,3.7-43.7c2.6-19.3,5.6-37,6.6-56.8
			c0.4-8.6,0.5-17.4,0-27v0c-0.3-5.8-0.8-11.8-1.6-18.1c-0.1-0.6-0.2-1.3-0.3-1.9c-0.6-4.5-1.2-9.1-2.1-13.9
			c6.7,0.6,13.3,1.2,16.6,1.5h0c1.3,0.1,2.1,0.2,2.1,0.2s3.2,1.5,8,3.6l0,0l0.4,0.2c2.8,1.3,6.1,2.8,9.6,4.4
			c7.3,3.4,15.5,7.2,22,10.3c6.2,3,15.7,8.1,16.4,8.6l45,86.7l63.6,71.2L1461.5,1105z"/>
		<path class="st59" d="M1340.6,1132.4c0,0-1.8-0.2-4.8-0.6c-1.3-0.2-2.8-0.4-4.5-0.6c-1.4-0.2-3-0.4-4.7-0.6
			c-5.4-0.7-11.9-1.5-19.1-2.4c-5.9-0.7-12.1-1.5-18.4-2.4c-5.7-0.8-11.4-1.5-16.9-2.3c-0.6-4.7-1.2-9.6-1.6-14.7c0-0.1,0-0.3,0-0.4
			v-0.3c6.1,0.9,12.5,1.8,18.9,2.7c3.7,0.6,7.4,1.1,11,1.6c0.5,0.1,1,0.1,1.4,0.2c2.1,0.3,4.2,0.6,6.2,0.9
			c6.5,0.9,12.4,1.8,17.2,2.5c1.6,0.2,3.1,0.4,4.4,0.6c1.2,0.2,2.3,0.4,3.3,0.5v0c1.2,0.2,2.2,0.3,2.9,0.4c1.1,0.2,1.7,0.2,1.7,0.2
			S1339.9,1120.6,1340.6,1132.4z"/>
		<path class="st11" d="M1285.6,934.9L1285.6,934.9L1285.6,934.9c-0.6-0.2-3.4-1-7.1-2.5c-0.1-0.6-0.2-1.3-0.3-1.9
			c-0.6-4.5-1.2-9.1-2.1-13.9c-0.6-3.7-1.4-7.5-2.2-11.4c-0.6-3.1-1.2-6.1-1.7-9v0c-0.5-0.6-1-1.1-1.4-1.6c0.4,0.4,0.8,0.9,1.3,1.3
			c-0.3-1.6-0.5-3.2-0.7-4.7v0c-0.4-3-0.8-6-1-8.8c4.2,3.4,9.3,8.3,13.6,12.6c5.3,5.2,9.4,9.6,9.4,9.6s-0.1,0.7-0.2,1.7
			c-0.1,1.7-0.3,4.4-0.2,6.8c0,0.7,0.1,1.4,0.2,2.1c0.2,1.6,0.7,2.9,1.5,3.3C1297.7,919.7,1285.6,934.9,1285.6,934.9z"/>
		<path class="st38" d="M1329.7,1116.3c0,0,1.7,11.9,1.7,16.4l-4.7-0.6c0,0-1-14.9-1.5-16.4L1329.7,1116.3z"/>
		<path class="st14" d="M1293.3,906.1c-0.1,1.7-0.3,4.4-0.2,6.8c-8.5-3.4-16.2-11.2-20.8-16.8v0c-0.5-0.6-1-1.1-1.4-1.6
			c0.4,0.4,0.8,0.9,1.3,1.3c-0.3-1.6-0.5-3.2-0.7-4.7l12.6,3.7l5.8,1.8c0,0,3.7,4.7,6.3,9.2C1295.2,905.9,1294.2,906,1293.3,906.1z"
			/>
		<path class="st11" d="M1306.1,898.8c-2.3,4.5-6.4,6.1-10,6.9c-1,0.2-1.9,0.3-2.9,0.4c-8,0.2-16.1-5.5-21.1-10.4
			c-0.3-1.6-0.5-3.2-0.7-4.7v0c-0.4-3-0.8-6-1-8.8c-0.6-6.6-0.8-12.6-0.6-18.1c0-2.4,0.2-4.7,0.4-6.9c0.2-2.4,0.4-4.6,0.8-6.8
			c1.2-8.7,3.3-15.8,5.7-21.7c16.1,0.7,34.5,5.9,34.5,5.9S1324.2,863.5,1306.1,898.8z"/>
		<path class="st61" d="M1316.8,825.6c-1.1,8.7-5.7,9-5.7,9c-8.3,1.5-14.8-2.4-29.3-1.5c-14.5,1-2.4,27.1-2.4,27.1l-8-1.4
			c0,0,0,0,0,0c-0.1-0.2-0.5-0.8-1.2-1.6c0.2-2.4,0.4-4.6,0.8-6.8c1.2-8.7,3.3-15.8,5.7-21.7c6.4-15.8,15.2-22.1,16-22.6
			c0,0,0,0,0,0c9,2.6,23,8.5,23,8.5S1317.9,817,1316.8,825.6z"/>
		<path class="st11" d="M1271.4,858.7c-0.2,2.4-0.6,4.4-1.6,5.4c0-2.4,0.2-4.7,0.4-6.9c0.2-2.4,0.4-4.6,0.8-6.8
			c0.2,0.4,0.2,0.9,0.3,1.4C1271.5,854.1,1271.5,856.5,1271.4,858.7z"/>
		<path class="st12" d="M1283.4,1005c-1.1,11.8-2.6,31.1-5.8,51.4c-2.1,12.9-5,26.8-7.7,39.9c-0.2-5.9-0.3-12-0.1-18.3
			c0.4-16.1,2-30.2,3.7-43.7c2.6-19.3,5.6-37,6.6-56.8C1282.8,986.5,1284.2,995.9,1283.4,1005z"/>
		<path class="st12" d="M1341.5,1059.1c-1.5-19.8,7.9-38.1,4-54.6l0,0c0.8,1.8,23,50.5,27.8,52.3c4.8,1.8,65,69.2,70,64.5
			c5.4-5,17.7-19.4,17.7-19.4l-64.7-69.9l-45-86.7c-0.7-0.6-10.2-5.7-16.4-8.6c-6.5-3.1-14.7-6.9-22-10.3c-3.5-1.6-6.8-3.1-9.5-4.4
			l-0.2,0.2c0,0,5,16.8,11.2,59.7c2.4,16.5,5.7,44.5,8.8,72.9v0c2.5,22.3,8.2,45.2,10,62.3c1.9,17.7,17.8,66.7,17.8,66.7l11.4-10.6
			c2-1.8,2.7-4.6,1.9-7.2C1359.5,1150.9,1344.5,1097.2,1341.5,1059.1z"/>
		<path class="st62" d="M1283.4,1005c-1.1,11.8-2.6,31.1-5.8,51.4l-4.1-22.1c2.6-19.3,5.6-37,6.6-56.8
			C1282.8,986.5,1284.2,995.9,1283.4,1005z"/>
		<path class="st62" d="M1302.8,921.9c0,0,5.3,17.2,11.4,60.1c2.4,16.5,5.7,44.5,8.8,72.9l3.3-81.1l-6.7-7.3l6-7.5l-12.8-32.6
			c-3.5-1.6-6.8-3.1-9.5-4.4L1302.8,921.9z"/>
		<path class="st63" d="M1285.6,934.9L1285.6,934.9l-0.1,0.3v0.1l-5.4,15.2c-0.3-5.8-0.8-11.8-1.6-18.1c-0.1-0.6-0.2-1.3-0.3-1.9
			C1280.4,931.8,1282.9,933.3,1285.6,934.9L1285.6,934.9L1285.6,934.9z"/>
		<path class="st63" d="M1293.3,914.9c0,0-0.5,6.9-7.7,19.9l16,20.9l1.2-33.9L1293.3,914.9z"/>
		<path class="st64" d="M1285.6,934.9c0,0-3.1,12.4-2,15.9c0,0,6.8,2.5,11.7-0.6C1295.3,950.1,1291.8,941.4,1285.6,934.9z"/>
		<g>
			<path class="st65" d="M1301.6,1114.1c1.7-8.8,0.1-35.1,0-36.2l-1.5,0.1c0,0.3,1.7,27.2,0,35.8L1301.6,1114.1z"/>
		</g>
		<path class="st66" d="M1289.5,1110.1c0,0,14,1.7,18.7,2.8l-0.6,15.7l-18.4-2L1289.5,1110.1z"/>
		<path class="st64" d="M1292.5,949c0,0,13.8,38.8,15.5,83.1c1.7,44.3-2.9,55.7-2.9,55.7l-17.3,15.5l-5.8-20.2
			c0,0,15.6-49.2,7.2-106c-1.5-10.3-3.8-29.8-3.8-29.8L1292.5,949z"/>
	</g>
</g>
<path class="st69" d="M1291.6,738.5c-3.7,0-6.3,4.3-6.3,8.3c0,2.5,1.1,3.9,2.9,3.9c1.8,0,3.9-1.9,4.8-5.9l1.1-5.7
	C1293.6,738.8,1292.7,738.5,1291.6,738.5z M1298.7,747.1c-0.5,2.7-0.9,5.7-1,8.1h-5.6l0.3-3.4h-0.1c-1.8,2.8-4.4,3.9-6.8,3.9
	c-3.6,0-6.5-2.8-6.5-7.9c0-7.3,5.3-14,13.2-14c0.9,0,2,0.1,2.9,0.5l1.8-9.5h6.2L1298.7,747.1z M1275.6,743.1l-2.3,12.2h-6.2
	l2.2-11.6c0.1-0.7,0.2-1.6,0.2-2.4c0-1.5-0.5-2.5-2.1-2.5c-2,0-4.4,2.5-5.2,7.2l-1.8,9.3h-6.2l2.7-14.1c0.5-2.7,0.9-5,1.1-6.8h5.5
	l-0.4,3.5h0.1c2-2.7,4.6-3.9,7.4-3.9c3.4,0,5.3,2.1,5.3,5.7C1275.9,740.4,1275.7,742,1275.6,743.1z M1244.2,738.5
	c-4,0-6.9,4.9-6.9,8.8c0,2.1,0.8,3.5,2.5,3.5c1.8,0,4.1-2.1,5-7.2l1-4.8C1245.4,738.6,1244.8,738.5,1244.2,738.5z M1250.6,745.8
	c-0.5,2.7-0.9,6.8-0.8,9.4h-5.7c0-1.2,0.2-2.7,0.3-4.2h-0.1c-1.9,3.5-4.6,4.6-7,4.6c-3.8,0-6.3-2.9-6.3-7.3c0-7.1,4.7-14.6,15-14.6
	c2.5,0,5.2,0.5,6.9,1L1250.6,745.8z M1219.4,738.8c-2.3,0-4.5,2.6-5.2,6.7l-0.8,4.5c0.7,0.6,1.6,1,2.8,1c3.3,0,5.9-4.7,5.9-8.8
	C1222.1,740.5,1221.4,738.8,1219.4,738.8z M1216.5,755.7c-1.7,0-3.2-0.4-3.9-0.9h-0.1l-1.7,8.9h-6.1l4-21.3c0.5-2.5,1-6,1.2-8.1h5.5
	l-0.4,3h0.1c1.7-2.3,4.2-3.5,6.7-3.5c4.5,0,6.7,3.6,6.7,7.9C1228.6,749,1223.7,755.7,1216.5,755.7z"/>
<g>
	<defs>
		<path id="SVGID_9_" d="M1161.4,733.6c0,0,7.9,0.7,15.5,4.4c7.1,3.5,12.2,10.5,12.2,10.5s-1.6,1.9-3.4,3.6c-1.7,1.6-3.5,3-3.5,3
			s-2.9-7.7-8-13.1C1168.6,736.2,1161.4,733.6,1161.4,733.6z"/>
	</defs>
	<clipPath id="SVGID_10_">
		<use xlink:href="#SVGID_9_"  style="overflow:visible;"/>
	</clipPath>
	<g class="st70">
		<defs>
			<rect id="SVGID_11_" x="1139.4" y="677.9" width="175.4" height="141.8"/>
		</defs>
		<clipPath id="SVGID_12_">
			<use xlink:href="#SVGID_11_"  style="overflow:visible;"/>
		</clipPath>
		<g style="clip-path:url(#SVGID_12_);">
			
				<image style="overflow:visible;" width="4116" height="3327" xlink:href="3F6CF08422D7A87.jpg"  transform="matrix(4.260955e-02 0 0 4.260955e-02 1139.364 677.8529)">
			</image>
		</g>
	</g>
</g>
<g>
	<defs>
		<path id="SVGID_13_" d="M1180.1,743.7c1.6,0.3,3.1,0.5,4.4,0.6c2.3,2.2,3.7,4.2,3.7,4.2s-1.4,1.6-2.9,3c-1.4,1.4-2.9,2.5-2.9,2.5
			s-2.4-6.4-6.7-11c-0.2-0.2-0.3-0.3-0.5-0.5C1176.8,743,1178.5,743.4,1180.1,743.7z"/>
	</defs>
	<clipPath id="SVGID_14_">
		<use xlink:href="#SVGID_13_"  style="overflow:visible;"/>
	</clipPath>
	<g class="st71">
		<defs>
			<path id="SVGID_15_" d="M1161.4,733.6c0,0,7.9,0.7,15.5,4.4c7.1,3.5,12.2,10.5,12.2,10.5s-1.6,1.9-3.4,3.6c-1.7,1.6-3.5,3-3.5,3
				s-2.9-7.7-8-13.1C1168.6,736.2,1161.4,733.6,1161.4,733.6z"/>
		</defs>
		<clipPath id="SVGID_16_">
			<use xlink:href="#SVGID_15_"  style="overflow:visible;"/>
		</clipPath>
		<g class="st72">
			<defs>
				<rect id="SVGID_17_" x="1139.4" y="677.9" width="175.4" height="141.8"/>
			</defs>
			<clipPath id="SVGID_18_">
				<use xlink:href="#SVGID_17_"  style="overflow:visible;"/>
			</clipPath>
			<g style="clip-path:url(#SVGID_18_);">
				
					<image style="overflow:visible;" width="4116" height="3327" xlink:href="3F6CF08422D7A85.jpg"  transform="matrix(4.260955e-02 0 0 4.260955e-02 1139.364 677.8529)">
				</image>
			</g>
		</g>
	</g>
</g>
<path class="st73" d="M1194.4,755.9c0,0,2.3,5.1,7.2,10.2c5.6,5.7,13.6,8,13.6,8s-9.3-0.3-16.8-3.7c-6.9-3.1-10.3-7.7-10.3-7.7
	s1.8-1.6,3.3-3.3C1193,757.7,1194.4,755.9,1194.4,755.9z"/>
<path class="st73" d="M1203.5,736.8c-5.6,15.7-20.7,31-35.1,34.7c-14.5,3.6-22.2-6.6-17-22.5c0.7-2,1.5-4.1,2.5-6.1
	c-0.4,0.9-0.7,1.8-1,2.8c-4.8,14.5,1.7,22.8,15,19.4c13.3-3.3,27.1-17,31.8-31.5c3.9-12,0.5-19.9-8.3-20.5
	C1202.9,712.5,1208.5,722.8,1203.5,736.8z"/>
<ellipse class="st74" cx="1188" cy="731.4" rx="7.7" ry="7.7"/>
</svg>
