<svg id="Layer_1" data-name="Layer 1" xmlns="http://www.w3.org/2000/svg" viewBox="0 0 809.3 755.19"><title>load</title><path d="M144.74,253.78s97.27,8.07,191.12,54.54c87.47,43.31,150.42,130,150.42,130S465.92,462.09,444,483.12c-20.71,19.9-43,37.1-43,37.1s-36.05-94.82-98.9-161.42C233.42,286,144.74,253.78,144.74,253.78Z" style="fill:#dd3f27;fill-rule:evenodd"/><path d="M552.61,530.14s28,63.53,88.55,125.62C710,726.34,809.3,755.19,809.3,755.19s-114.52-3.27-207.66-45.83c-84.78-38.74-127.85-95.58-127.85-95.58s21.66-19.41,41.27-40.22C534.86,552.55,552.61,530.14,552.61,530.14Z" style="fill:#1e4281;fill-rule:evenodd"/><path d="M664.27,293.16C594.6,487.35,409.07,676.6,230.22,721.65S-44.15,639.71,20,444.21a566.33,566.33,0,0,1,31.2-75.44q-7,17.09-12.69,34.31C-20.32,582.36,59.95,684.18,224,642.87s334.64-210.11,393.46-389.4C665.88,105.8,623.36,7.29,515.21.22,657.49-6.06,726,121.19,664.27,293.16Z" style="fill:#1e4281;fill-rule:evenodd"/><ellipse cx="473.29" cy="226.43" rx="95.59" ry="95.69" style="fill:#dd3f27"/></svg>